<?xml version="1.0" encoding="utf-8"?>
<!-- Generator: Adobe Illustrator 20.0.0, SVG Export Plug-In . SVG Version: 6.00 Build 0)  -->
<svg version="1.2" baseProfile="tiny" xmlns="http://www.w3.org/2000/svg" xmlns:xlink="http://www.w3.org/1999/xlink" x="0px"
	 y="0px" viewBox="0 0 141.7 141.7" xml:space="preserve">
<g id="_x31_.1_Fill">
</g>
<g id="_x31_.1_Stroke">
</g>
<g id="_x31_.2_Fll">
</g>
<g id="_x31_.2_Stroke">
</g>
<g id="_x31_.3_Fill">
</g>
<g id="_x31_.3_Stroke">
</g>
<g id="_x32_.1_fill">
</g>
<g id="_x32_.1_kontur">
</g>
<g id="_x32_.2_fill">
</g>
<g id="_x32_.2_kontur">
</g>
<g id="_x32_.3_fill">
</g>
<g id="_x32_.3_kontur">
</g>
<g id="_x32_.4_fill">
</g>
<g id="_x32_.4_kontur">
</g>
<g id="_x32_.5_fill">
</g>
<g id="_x32_.5_kontur">
</g>
<g id="_x33_.1_fill">
</g>
<g id="_x33_.1_kontur">
</g>
<g id="_x33_.2_fil">
</g>
<g id="_x33_.2_kontur">
</g>
<g id="_x33_.3_fill">
</g>
<g id="_x33_.3_kontur">
</g>
<g id="_x33_.4_fill">
</g>
<g id="_x33_.4_kontur">
</g>
<g id="_x33_.5_fill">
</g>
<g id="_x33_.5_kontur">
</g>
<g id="_x34_.1_Fill">
</g>
<g id="_x34_.1_Stroke">
</g>
<g id="_x34_.2_Fll">
</g>
<g id="_x34_.2_Stroke">
</g>
<g id="_x34_.3_Fill">
</g>
<g id="_x34_.3_Stroke">
</g>
<g id="_x35_.1_fill">
</g>
<g id="_x35_.1_kontur">
</g>
<g id="_x35_.2_fill">
</g>
<g id="_x35_.2_kontur">
</g>
<g id="_x35_.3_fill">
</g>
<g id="_x35_.3_kontur">
</g>
<g id="_x35_.4_fill">
</g>
<g id="_x35_.4_kontur">
</g>
<g id="_x35_.5_fill">
</g>
<g id="_x35_.5_kontur">
</g>
<g id="_x35_.6_fill">
</g>
<g id="_x35_.6_kontur">
</g>
<g id="_x35_.7_fill">
</g>
<g id="_x35_.7_kontur">
</g>
<g id="_x35_.8_fill">
</g>
<g id="_x35_.8_kontur">
</g>
<g id="_x36_.1_fill">
</g>
<g id="_x36_.1_kontur">
</g>
<g id="_x36_.2_fill">
</g>
<g id="_x36_.2_kontur">
</g>
<g id="_x36_.3_Fill">
</g>
<g id="_x36_.3_kontur">
</g>
<g id="_x36_.4_fill">
</g>
<g id="_x36_.4_kontur">
</g>
<g id="_x36_.5_fill">
	<path fill="#FFFFFF" d="M70.9,126.4c-2.8-7.6-5-15.2-6.8-23c-0.6-2.6-1.1-5.2-1.6-7.8c0-0.1,0-0.2,0-0.3c-0.3-1.6-0.4-3.2-0.7-4.9
		c-3.2-25.1-0.4-50.8,9.1-75.1c9.5,24.3,12.4,49.9,9.1,75.1c-0.2,1.6-0.4,3.2-0.7,4.9c0,0.1,0,0.2,0,0.3c-0.4,2.6-1,5.2-1.6,7.8
		C75.9,111.2,73.7,118.8,70.9,126.4z"/>
</g>
<g id="_x36_.5_kontur">
	<path fill="none" stroke="#000000" stroke-width="0.75" stroke-miterlimit="10" d="M70.9,126.4c-2.8-7.6-5-15.2-6.8-23
		c-0.6-2.6-1.1-5.2-1.6-7.8c0-0.1,0-0.2,0-0.3c-0.3-1.6-0.4-3.2-0.7-4.9c-3.2-25.1-0.4-50.8,9.1-75.1c9.5,24.3,12.4,49.9,9.1,75.1
		c-0.2,1.6-0.4,3.2-0.7,4.9c0,0.1,0,0.2,0,0.3c-0.4,2.6-1,5.2-1.6,7.8C75.9,111.2,73.7,118.8,70.9,126.4z"/>
</g>
<g id="_x37_.1_fill">
</g>
<g id="_x37_.1_kontur">
</g>
<g id="_x37_.2_fill">
</g>
<g id="_x37_.2_kontur">
</g>
<g id="_x38_.1_fill">
</g>
<g id="_x38_.1_kontur">
</g>
<g id="_x38_.2_fill">
</g>
<g id="_x38_.2_kontur">
</g>
<g id="_x38_.3_fill">
</g>
<g id="_x38_.3_kontur">
</g>
<g id="_x38_.4_fill">
</g>
<g id="_x38_.4_kontur">
</g>
<g id="_x38_.5_fill">
</g>
<g id="_x38_.5_kontur">
</g>
<g id="_x39_.1_fill">
</g>
<g id="_x39_.1_kontur">
</g>
<g id="_x39_.2_fill">
</g>
<g id="_x39_.2_kontur">
</g>
<g id="_x39_.3_fill">
</g>
<g id="_x39_.3_kontur">
</g>
<g id="_x39_.4_fill">
</g>
<g id="_x39_.4_kontur">
</g>
<g id="_x39_.5_fill">
</g>
<g id="_x39_.5_kontur">
</g>
</svg>
