<?xml version="1.0" encoding="utf-8"?>
<!-- Generator: Adobe Illustrator 20.0.0, SVG Export Plug-In . SVG Version: 6.00 Build 0)  -->
<svg version="1.2" baseProfile="tiny" xmlns="http://www.w3.org/2000/svg" xmlns:xlink="http://www.w3.org/1999/xlink" x="0px"
	 y="0px" viewBox="0 0 141.7 141.7" xml:space="preserve">
<g id="_x31_.1_Fill">
</g>
<g id="_x31_.1_Stroke">
</g>
<g id="_x31_.2_Fll">
</g>
<g id="_x31_.2_Stroke">
</g>
<g id="_x31_.3_Fill">
</g>
<g id="_x31_.3_Stroke">
</g>
<g id="_x32_.1_fill">
</g>
<g id="_x32_.1_kontur">
</g>
<g id="_x32_.2_fill">
</g>
<g id="_x32_.2_kontur">
</g>
<g id="_x32_.3_fill">
</g>
<g id="_x32_.3_kontur">
</g>
<g id="_x32_.4_fill">
</g>
<g id="_x32_.4_kontur">
</g>
<g id="_x32_.5_fill">
</g>
<g id="_x32_.5_kontur">
</g>
<g id="_x33_.1_fill">
</g>
<g id="_x33_.1_kontur">
</g>
<g id="_x33_.2_fil">
</g>
<g id="_x33_.2_kontur">
</g>
<g id="_x33_.3_fill">
</g>
<g id="_x33_.3_kontur">
</g>
<g id="_x33_.4_fill">
</g>
<g id="_x33_.4_kontur">
</g>
<g id="_x33_.5_fill">
</g>
<g id="_x33_.5_kontur">
</g>
<g id="_x34_.1_Fill">
</g>
<g id="_x34_.1_Stroke">
</g>
<g id="_x34_.2_Fll">
</g>
<g id="_x34_.2_Stroke">
</g>
<g id="_x34_.3_Fill">
</g>
<g id="_x34_.3_Stroke">
</g>
<g id="_x35_.1_fill">
</g>
<g id="_x35_.1_kontur">
</g>
<g id="_x35_.2_fill">
</g>
<g id="_x35_.2_kontur">
</g>
<g id="_x35_.3_fill">
</g>
<g id="_x35_.3_kontur">
</g>
<g id="_x35_.4_fill">
</g>
<g id="_x35_.4_kontur">
</g>
<g id="_x35_.5_fill">
</g>
<g id="_x35_.5_kontur">
</g>
<g id="_x35_.6_fill">
</g>
<g id="_x35_.6_kontur">
</g>
<g id="_x35_.7_fill">
</g>
<g id="_x35_.7_kontur">
</g>
<g id="_x35_.8_fill">
</g>
<g id="_x35_.8_kontur">
</g>
<g id="_x36_.1_fill">
</g>
<g id="_x36_.1_kontur">
</g>
<g id="_x36_.2_fill">
</g>
<g id="_x36_.2_kontur">
</g>
<g id="_x36_.3_Fill">
</g>
<g id="_x36_.3_kontur">
</g>
<g id="_x36_.4_fill">
</g>
<g id="_x36_.4_kontur">
</g>
<g id="_x36_.5_fill">
</g>
<g id="_x36_.5_kontur">
</g>
<g id="_x37_.1_fill">
</g>
<g id="_x37_.1_kontur">
</g>
<g id="_x37_.2_fill">
</g>
<g id="_x37_.2_kontur">
</g>
<g id="_x38_.1_fill">
</g>
<g id="_x38_.1_kontur">
</g>
<g id="_x38_.2_fill">
</g>
<g id="_x38_.2_kontur">
</g>
<g id="_x38_.3_fill">
</g>
<g id="_x38_.3_kontur">
</g>
<g id="_x38_.4_fill">
</g>
<g id="_x38_.4_kontur">
</g>
<g id="_x38_.5_fill">
</g>
<g id="_x38_.5_kontur">
</g>
<g id="_x39_.1_fill">
</g>
<g id="_x39_.1_kontur">
</g>
<g id="_x39_.2_fill">
</g>
<g id="_x39_.2_kontur">
</g>
<g id="_x39_.3_fill">
	<g>
		<path fill="#FFFFFF" d="M27.3,32.5c7.6,2.4,13.3,8.1,17,15.3C36.8,44.8,30.5,39.8,27.3,32.5z"/>
		<path fill="#FFFFFF" d="M27.6,45.1C35,52.4,44.3,55.8,54,56.4c-1.6-9.6-6-18.4-14-25c-6.6-5.4-14.3-7.6-21.8-7.2
			C18.5,31.7,21.5,39.1,27.6,45.1z"/>
		<path fill="#FFFFFF" d="M50.9,92.4c1.1,19.7,18,31.8,37,30.3c4.9-0.4,9.8-1.7,14.5-3.7c0.2-0.1,0.5-0.2,0.7-0.3
			c4.3-2,8.2-4.6,11.5-7.9c2.9-3.6,5.1-7.8,6.6-12.3c0.1-0.2,0.1-0.5,0.2-0.7c1.6-4.9,2.3-9.9,2.2-14.8
			c-0.6-19.1-14.4-34.6-34.1-33.5C78.3,50,68.8,55.4,61.4,63.1C54.6,71.2,50.3,81.2,50.9,92.4z"/>
		<path fill="#FFFFFF" d="M77.1,94.8c3.2,9.3,13.4,11.9,21.8,8.3c0.3-0.1,0.4-0.3,0.6-0.4c1.3-0.6,2.4-1.5,3.2-2.6
			c1-0.9,1.8-2.1,2.2-3.5c0.1-0.2,0.3-0.4,0.4-0.7c2.6-8.8-1-18.7-10.6-20.8c-5.8-1.3-11.1,0.6-15.2,4.1
			C76.5,83.8,75.2,89.3,77.1,94.8z"/>
		<path fill="#FFFFFF" d="M87.4,98.5c0.2,0.4,0.4,0.7,0.6,1c-3.5-1.1-6.3-3.8-7-8.2c-0.5-3.3,0.3-6.3,2-8.9c2.4-1.9,5.3-3.1,8.6-2.9
			c4.5,0.2,7.5,2.7,8.9,6.1c-0.4-0.2-0.7-0.4-1.1-0.5c-3.9-1.4-7.7,0.1-10.1,3C86.7,90.8,85.6,94.8,87.4,98.5z"/>
		<path fill="#FFFFFF" d="M108.1,110.2c-1,0.9-2.1,1.6-3.2,2.4c-0.5,0.3-0.9,0.6-1.4,0.8c-0.5,0.3-1.1,0.6-1.6,0.9
			c-0.9,0.5-1.9,0.9-2.9,1.2c-9.7,3.6-21.4,2.6-29.6-3.5C53.2,100.1,55.8,81.1,65.8,67c13-11.4,31.7-16,45.2-1.2
			c6.9,7.6,9.2,19.1,6.6,29.1c-0.3,1-0.6,2-0.9,3c-0.2,0.6-0.4,1.1-0.7,1.7c-0.2,0.5-0.5,1-0.7,1.5c-0.6,1.2-1.3,2.4-2,3.5
			s-1.6,2.1-2.4,3C110.1,108.4,109.1,109.3,108.1,110.2z"/>
	</g>
</g>
<g id="_x39_.3_kontur">
	<g>
		<path fill="none" stroke="#000000" stroke-width="0.75" stroke-miterlimit="10" d="M27.3,32.5c7.6,2.4,13.3,8.1,17,15.3
			C36.8,44.8,30.5,39.8,27.3,32.5z"/>
		<path fill="none" stroke="#000000" stroke-width="0.75" stroke-miterlimit="10" d="M27.6,45.1C35,52.4,44.3,55.8,54,56.4
			c-1.6-9.6-6-18.4-14-25c-6.6-5.4-14.3-7.6-21.8-7.2C18.5,31.7,21.5,39.1,27.6,45.1z"/>
		<path fill="none" stroke="#000000" stroke-width="0.75" stroke-miterlimit="10" d="M50.9,92.4c1.1,19.7,18,31.8,37,30.3
			c4.9-0.4,9.8-1.7,14.5-3.7c0.2-0.1,0.5-0.2,0.7-0.3c4.3-2,8.2-4.6,11.5-7.9c2.9-3.6,5.1-7.8,6.6-12.3c0.1-0.2,0.1-0.5,0.2-0.7
			c1.6-4.9,2.3-9.9,2.2-14.8c-0.6-19.1-14.4-34.6-34.1-33.5C78.3,50,68.8,55.4,61.4,63.1C54.6,71.2,50.3,81.2,50.9,92.4z"/>
		<path fill="none" stroke="#000000" stroke-width="0.75" stroke-miterlimit="10" d="M77.1,94.8c3.2,9.3,13.4,11.9,21.8,8.3
			c0.3-0.1,0.4-0.3,0.6-0.4c1.3-0.6,2.4-1.5,3.2-2.6c1-0.9,1.8-2.1,2.2-3.5c0.1-0.2,0.3-0.4,0.4-0.7c2.6-8.8-1-18.7-10.6-20.8
			c-5.8-1.3-11.1,0.6-15.2,4.1C76.5,83.8,75.2,89.3,77.1,94.8z"/>
		<path fill="none" stroke="#000000" stroke-width="0.75" stroke-miterlimit="10" d="M87.4,98.5c0.2,0.4,0.4,0.7,0.6,1
			c-3.5-1.1-6.3-3.8-7-8.2c-0.5-3.3,0.3-6.3,2-8.9c2.4-1.9,5.3-3.1,8.6-2.9c4.5,0.2,7.5,2.7,8.9,6.1c-0.4-0.2-0.7-0.4-1.1-0.5
			c-3.9-1.4-7.7,0.1-10.1,3C86.7,90.8,85.6,94.8,87.4,98.5z"/>
		<path fill="none" stroke="#000000" stroke-width="0.75" stroke-miterlimit="10" d="M108.1,110.2c-1,0.9-2.1,1.6-3.2,2.4
			c-0.5,0.3-0.9,0.6-1.4,0.8c-0.5,0.3-1.1,0.6-1.6,0.9c-0.9,0.5-1.9,0.9-2.9,1.2c-9.7,3.6-21.4,2.6-29.6-3.5
			C53.2,100.1,55.8,81.1,65.8,67c13-11.4,31.7-16,45.2-1.2c6.9,7.6,9.2,19.1,6.6,29.1c-0.3,1-0.6,2-0.9,3c-0.2,0.6-0.4,1.1-0.7,1.7
			c-0.2,0.5-0.5,1-0.7,1.5c-0.6,1.2-1.3,2.4-2,3.5s-1.6,2.1-2.4,3C110.1,108.4,109.1,109.3,108.1,110.2z"/>
	</g>
</g>
<g id="_x39_.4_fill">
</g>
<g id="_x39_.4_kontur">
</g>
<g id="_x39_.5_fill">
</g>
<g id="_x39_.5_kontur">
</g>
</svg>
