<?xml version="1.0" encoding="utf-8"?>
<!-- Generator: Adobe Illustrator 20.0.0, SVG Export Plug-In . SVG Version: 6.00 Build 0)  -->
<svg version="1.2" baseProfile="tiny" xmlns="http://www.w3.org/2000/svg" xmlns:xlink="http://www.w3.org/1999/xlink" x="0px"
	 y="0px" viewBox="0 0 141.7 141.7" xml:space="preserve">
<g id="_x31_.1_Fill">
</g>
<g id="_x31_.1_Stroke">
</g>
<g id="_x31_.2_Fll">
</g>
<g id="_x31_.2_Stroke">
</g>
<g id="_x31_.3_Fill">
	<g>
		<g>
			<path fill="#FFFFFF" d="M106.6,36.7c-7.8-5.3-15.9-10-24.2-14.5c-9-2.8-18-5.3-27.2-7.1C39.8,11.9,22,16,18,34
				c-3.5,15.8,3.9,31.6,20.1,35.5c3.8-2.6,8.2-4.6,13-6c5.2-1.5,10.6-2.7,16-3.8c3.1,4.6,6,9.3,8.7,14.1c2.5,4.4,4.2,9,5,13.6
				c14.2,8.9,30.4,3,38.9-10.6C129.4,61.3,119.7,45.5,106.6,36.7z"/>
			<path fill="#FFFFFF" d="M80.8,87.4l0.9,3.3c1,3.5,1.3,7.1,0.7,10.7c-3.3,19.9-24.7,31.3-42.4,24.8c-11.4-5.5-18.4-17.8-18.3-30.3
				c0-10.9,6.2-20.8,15.7-26.1l0.8-0.4c0.2-0.1,4.4-5.2,4.4-5.2s16.6-11.7,17.3-11.7c0.6,0,11.2,1.2,11.4,1.2S84,71.7,84,71.7
				L80.8,87.4z"/>
		</g>
		<path fill="#FFFFFF" d="M41.7,56.2c7.8,0,13.6-6.3,14.2-13.9c0-0.2,0.1-0.3,0-0.5c0-0.2,0-0.4,0-0.5c-0.6-7.6-6.4-13.9-14.2-13.9
			c-7.7,0-14.3,6.6-14.2,14.5C27.5,49.6,34,56.2,41.7,56.2z"/>
		<path fill="#FFFFFF" d="M87.3,75.4c-5.5-5.6-5.2-14.3-0.3-20c0.1-0.1,0.2-0.3,0.3-0.4c0.1-0.1,0.3-0.3,0.4-0.3
			c5.7-5,14.2-5.2,19.7,0.3c5.5,5.5,5.5,14.9,0,20.4C101.9,80.9,92.8,80.9,87.3,75.4z"/>
		<path fill="#FFFFFF" d="M57.6,82.6c-3-1.1-6.3-1.1-9.5,0.1c-7.6,2.9-11,11.6-8.1,19.1c0,0.1,0.1,0.1,0.1,0.2c0,0.1,0,0.2,0.1,0.3
			c1.4,3.2,3.7,5.7,6.5,7.2c3.1,0.9,6.4,0.8,9.6-0.5c0.1,0,0.2-0.1,0.3-0.1c0.1,0,0.2,0,0.2-0.1c7.3-3.3,10.9-11.8,7.6-19.4
			C62.9,86.3,60.5,84,57.6,82.6z"/>
	</g>
</g>
<g id="_x31_.3_Stroke">
	<g>
		<g>
			<path fill="none" stroke="#231F20" stroke-width="0.75" stroke-miterlimit="10" d="M106.6,36.7c-7.8-5.3-15.9-10-24.2-14.5
				c-9-2.8-18-5.3-27.2-7.1C39.8,11.9,22,16,18,34c-3.5,15.8,3.9,31.6,20.1,35.5c3.8-2.6,8.2-4.6,13-6c5.2-1.5,10.6-2.7,16-3.8
				c3.1,4.6,6,9.3,8.7,14.1c2.5,4.4,4.2,9,5,13.6c14.2,8.9,30.4,3,38.9-10.6C129.4,61.3,119.7,45.5,106.6,36.7z"/>
			<path fill="none" stroke="#231F20" stroke-width="0.75" stroke-miterlimit="10" d="M80.8,87.4l0.9,3.3c1,3.5,1.3,7.1,0.7,10.7
				c-3.3,19.9-24.7,31.3-42.4,24.8c-11.4-5.5-18.4-17.8-18.3-30.3c0-10.9,6.2-20.8,15.7-26.1l0.8-0.4"/>
		</g>
		<path fill="#FFFFFF" stroke="#231F20" stroke-width="0.75" stroke-miterlimit="10" d="M41.7,56.2c7.8,0,13.6-6.3,14.2-13.9
			c0-0.2,0.1-0.3,0-0.5c0-0.2,0-0.4,0-0.5c-0.6-7.6-6.4-13.9-14.2-13.9c-7.7,0-14.3,6.6-14.2,14.5C27.5,49.6,34,56.2,41.7,56.2z"/>
		<path fill="#FFFFFF" stroke="#231F20" stroke-width="0.75" stroke-miterlimit="10" d="M87.3,75.4c-5.5-5.6-5.2-14.3-0.3-20
			c0.1-0.1,0.2-0.3,0.3-0.4c0.1-0.1,0.3-0.3,0.4-0.3c5.7-5,14.2-5.2,19.7,0.3c5.5,5.5,5.5,14.9,0,20.4
			C101.9,80.9,92.8,80.9,87.3,75.4z"/>
		<path fill="#FFFFFF" stroke="#231F20" stroke-width="0.75" stroke-miterlimit="10" d="M57.6,82.6c-3-1.1-6.3-1.1-9.5,0.1
			c-7.6,2.9-11,11.6-8.1,19.1c0,0.1,0.1,0.1,0.1,0.2c0,0.1,0,0.2,0.1,0.3c1.4,3.2,3.7,5.7,6.5,7.2c3.1,0.9,6.4,0.8,9.6-0.5
			c0.1,0,0.2-0.1,0.3-0.1c0.1,0,0.2,0,0.2-0.1c7.3-3.3,10.9-11.8,7.6-19.4C62.9,86.3,60.5,84,57.6,82.6z"/>
	</g>
</g>
<g id="_x32_.1_fill">
</g>
<g id="_x32_.1_kontur">
</g>
<g id="_x32_.2_fill">
</g>
<g id="_x32_.2_kontur">
</g>
<g id="_x32_.3_fill">
</g>
<g id="_x32_.3_kontur">
</g>
<g id="_x32_.4_fill">
</g>
<g id="_x32_.4_kontur">
</g>
<g id="_x32_.5_fill">
</g>
<g id="_x32_.5_kontur">
</g>
<g id="_x33_.1_fill">
</g>
<g id="_x33_.1_kontur">
</g>
<g id="_x33_.2_fil">
</g>
<g id="_x33_.2_kontur">
</g>
<g id="_x33_.3_fill">
</g>
<g id="_x33_.3_kontur">
</g>
<g id="_x33_.4_fill">
</g>
<g id="_x33_.4_kontur">
</g>
<g id="_x33_.5_fill">
</g>
<g id="_x33_.5_kontur">
</g>
<g id="_x34_.1_Fill">
</g>
<g id="_x34_.1_Stroke">
</g>
<g id="_x34_.2_Fll">
</g>
<g id="_x34_.2_Stroke">
</g>
<g id="_x34_.3_Fill">
</g>
<g id="_x34_.3_Stroke">
</g>
<g id="_x35_.1_fill">
</g>
<g id="_x35_.1_kontur">
</g>
<g id="_x35_.2_fill">
</g>
<g id="_x35_.2_kontur">
</g>
<g id="_x35_.3_fill">
</g>
<g id="_x35_.3_kontur">
</g>
<g id="_x35_.4_fill">
</g>
<g id="_x35_.4_kontur">
</g>
<g id="_x35_.5_fill">
</g>
<g id="_x35_.5_kontur">
</g>
<g id="_x35_.6_fill">
</g>
<g id="_x35_.6_kontur">
</g>
<g id="_x35_.7_fill">
</g>
<g id="_x35_.7_kontur">
</g>
<g id="_x35_.8_fill">
</g>
<g id="_x35_.8_kontur">
</g>
<g id="_x36_.1_fill">
</g>
<g id="_x36_.1_kontur">
</g>
<g id="_x36_.2_fill">
</g>
<g id="_x36_.2_kontur">
</g>
<g id="_x36_.3_Fill">
</g>
<g id="_x36_.3_kontur">
</g>
<g id="_x36_.4_fill">
</g>
<g id="_x36_.4_kontur">
</g>
<g id="_x36_.5_fill">
</g>
<g id="_x36_.5_kontur">
</g>
<g id="_x37_.1_fill">
</g>
<g id="_x37_.1_kontur">
</g>
<g id="_x37_.2_fill">
</g>
<g id="_x37_.2_kontur">
</g>
<g id="_x38_.1_fill">
</g>
<g id="_x38_.1_kontur">
</g>
<g id="_x38_.2_fill">
</g>
<g id="_x38_.2_kontur">
</g>
<g id="_x38_.3_fill">
</g>
<g id="_x38_.3_kontur">
</g>
<g id="_x38_.4_fill">
</g>
<g id="_x38_.4_kontur">
</g>
<g id="_x38_.5_fill">
</g>
<g id="_x38_.5_kontur">
</g>
<g id="_x39_.1_fill">
</g>
<g id="_x39_.1_kontur">
</g>
<g id="_x39_.2_fill">
</g>
<g id="_x39_.2_kontur">
</g>
<g id="_x39_.3_fill">
</g>
<g id="_x39_.3_kontur">
</g>
<g id="_x39_.4_fill">
</g>
<g id="_x39_.4_kontur">
</g>
<g id="_x39_.5_fill">
</g>
<g id="_x39_.5_kontur">
</g>
</svg>
