<?xml version="1.0" encoding="utf-8"?>
<!-- Generator: Adobe Illustrator 20.0.0, SVG Export Plug-In . SVG Version: 6.00 Build 0)  -->
<svg version="1.2" baseProfile="tiny" xmlns="http://www.w3.org/2000/svg" xmlns:xlink="http://www.w3.org/1999/xlink" x="0px"
	 y="0px" viewBox="0 0 141.7 141.7" xml:space="preserve">
<g id="_x31_.1_Fill">
</g>
<g id="_x31_.1_Stroke">
</g>
<g id="_x31_.2_Fll">
</g>
<g id="_x31_.2_Stroke">
</g>
<g id="_x31_.3_Fill">
</g>
<g id="_x31_.3_Stroke">
</g>
<g id="_x32_.1_fill">
</g>
<g id="_x32_.1_kontur">
</g>
<g id="_x32_.2_fill">
</g>
<g id="_x32_.2_kontur">
</g>
<g id="_x32_.3_fill">
</g>
<g id="_x32_.3_kontur">
</g>
<g id="_x32_.4_fill">
</g>
<g id="_x32_.4_kontur">
</g>
<g id="_x32_.5_fill">
</g>
<g id="_x32_.5_kontur">
</g>
<g id="_x33_.1_fill">
</g>
<g id="_x33_.1_kontur">
</g>
<g id="_x33_.2_fil">
</g>
<g id="_x33_.2_kontur">
</g>
<g id="_x33_.3_fill">
</g>
<g id="_x33_.3_kontur">
</g>
<g id="_x33_.4_fill">
	<g>
		<path fill="#FFFFFF" d="M84.8,75.8c13.6,3.9,28.6,1.3,41-5.9c-12.4-7.2-27.4-9.8-41-5.9c12.2-6.9,20.9-19.4,24.5-33.2
			c-13.6,3.7-26,12.4-32.9,24.5c3.8-13.6,1.2-28.7-5.9-41.1c-7.1,12.4-9.7,27.5-5.9,41.1c-6.9-12.1-19.3-20.8-32.9-24.5
			C35.4,44.6,44.1,57.1,56.3,64c-13.6-3.9-28.6-1.3-41,5.9c12.4,7.2,27.4,9.8,41,5.9C44.1,82.8,35.4,95.3,31.8,109
			c13.6-3.7,26-12.4,32.9-24.5c-3.8,13.6-1.2,28.7,5.9,41.1c7.1-12.4,9.7-27.5,5.9-41.1c6.9,12.1,19.3,20.8,32.9,24.5
			C105.7,95.3,97,82.8,84.8,75.8z"/>
	</g>
</g>
<g id="_x33_.4_kontur">
	<g>
		<path fill="none" stroke="#000000" stroke-width="0.75" stroke-miterlimit="10" d="M84.8,75.8c13.6,3.9,28.6,1.3,41-5.9
			c-12.4-7.2-27.4-9.8-41-5.9c12.2-6.9,20.9-19.4,24.5-33.2c-13.6,3.7-26,12.4-32.9,24.5c3.8-13.6,1.2-28.7-5.9-41.1
			c-7.1,12.4-9.7,27.5-5.9,41.1c-6.9-12.1-19.3-20.8-32.9-24.5C35.4,44.6,44.1,57.1,56.3,64c-13.6-3.9-28.6-1.3-41,5.9
			c12.4,7.2,27.4,9.8,41,5.9C44.1,82.8,35.4,95.3,31.8,109c13.6-3.7,26-12.4,32.9-24.5c-3.8,13.6-1.2,28.7,5.9,41.1
			c7.1-12.4,9.7-27.5,5.9-41.1c6.9,12.1,19.3,20.8,32.9,24.5C105.7,95.3,97,82.8,84.8,75.8z"/>
	</g>
</g>
<g id="_x33_.5_fill">
</g>
<g id="_x33_.5_kontur">
</g>
<g id="_x34_.1_Fill">
</g>
<g id="_x34_.1_Stroke">
</g>
<g id="_x34_.2_Fll">
</g>
<g id="_x34_.2_Stroke">
</g>
<g id="_x34_.3_Fill">
</g>
<g id="_x34_.3_Stroke">
</g>
<g id="_x35_.1_fill">
</g>
<g id="_x35_.1_kontur">
</g>
<g id="_x35_.2_fill">
</g>
<g id="_x35_.2_kontur">
</g>
<g id="_x35_.3_fill">
</g>
<g id="_x35_.3_kontur">
</g>
<g id="_x35_.4_fill">
</g>
<g id="_x35_.4_kontur">
</g>
<g id="_x35_.5_fill">
</g>
<g id="_x35_.5_kontur">
</g>
<g id="_x35_.6_fill">
</g>
<g id="_x35_.6_kontur">
</g>
<g id="_x35_.7_fill">
</g>
<g id="_x35_.7_kontur">
</g>
<g id="_x35_.8_fill">
</g>
<g id="_x35_.8_kontur">
</g>
<g id="_x36_.1_fill">
</g>
<g id="_x36_.1_kontur">
</g>
<g id="_x36_.2_fill">
</g>
<g id="_x36_.2_kontur">
</g>
<g id="_x36_.3_Fill">
</g>
<g id="_x36_.3_kontur">
</g>
<g id="_x36_.4_fill">
</g>
<g id="_x36_.4_kontur">
</g>
<g id="_x36_.5_fill">
</g>
<g id="_x36_.5_kontur">
</g>
<g id="_x37_.1_fill">
</g>
<g id="_x37_.1_kontur">
</g>
<g id="_x37_.2_fill">
</g>
<g id="_x37_.2_kontur">
</g>
<g id="_x38_.1_fill">
</g>
<g id="_x38_.1_kontur">
</g>
<g id="_x38_.2_fill">
</g>
<g id="_x38_.2_kontur">
</g>
<g id="_x38_.3_fill">
</g>
<g id="_x38_.3_kontur">
</g>
<g id="_x38_.4_fill">
</g>
<g id="_x38_.4_kontur">
</g>
<g id="_x38_.5_fill">
</g>
<g id="_x38_.5_kontur">
</g>
<g id="_x39_.1_fill">
</g>
<g id="_x39_.1_kontur">
</g>
<g id="_x39_.2_fill">
</g>
<g id="_x39_.2_kontur">
</g>
<g id="_x39_.3_fill">
</g>
<g id="_x39_.3_kontur">
</g>
<g id="_x39_.4_fill">
</g>
<g id="_x39_.4_kontur">
</g>
<g id="_x39_.5_fill">
</g>
<g id="_x39_.5_kontur">
</g>
</svg>
