<?xml version="1.0" encoding="utf-8"?>
<!-- Generator: Adobe Illustrator 20.0.0, SVG Export Plug-In . SVG Version: 6.00 Build 0)  -->
<svg version="1.2" baseProfile="tiny" xmlns="http://www.w3.org/2000/svg" xmlns:xlink="http://www.w3.org/1999/xlink" x="0px"
	 y="0px" viewBox="0 0 141.7 141.7" xml:space="preserve">
<g id="_x31_.1_Fill">
</g>
<g id="_x31_.1_Stroke">
</g>
<g id="_x31_.2_Fll">
</g>
<g id="_x31_.2_Stroke">
</g>
<g id="_x31_.3_Fill">
</g>
<g id="_x31_.3_Stroke">
</g>
<g id="_x32_.1_fill">
</g>
<g id="_x32_.1_kontur">
</g>
<g id="_x32_.2_fill">
</g>
<g id="_x32_.2_kontur">
</g>
<g id="_x32_.3_fill">
</g>
<g id="_x32_.3_kontur">
</g>
<g id="_x32_.4_fill">
</g>
<g id="_x32_.4_kontur">
</g>
<g id="_x32_.5_fill">
</g>
<g id="_x32_.5_kontur">
</g>
<g id="_x33_.1_fill">
</g>
<g id="_x33_.1_kontur">
</g>
<g id="_x33_.2_fil">
</g>
<g id="_x33_.2_kontur">
</g>
<g id="_x33_.3_fill">
</g>
<g id="_x33_.3_kontur">
</g>
<g id="_x33_.4_fill">
</g>
<g id="_x33_.4_kontur">
</g>
<g id="_x33_.5_fill">
</g>
<g id="_x33_.5_kontur">
</g>
<g id="_x34_.1_Fill">
</g>
<g id="_x34_.1_Stroke">
</g>
<g id="_x34_.2_Fll">
</g>
<g id="_x34_.2_Stroke">
</g>
<g id="_x34_.3_Fill">
</g>
<g id="_x34_.3_Stroke">
</g>
<g id="_x35_.1_fill">
</g>
<g id="_x35_.1_kontur">
</g>
<g id="_x35_.2_fill">
</g>
<g id="_x35_.2_kontur">
</g>
<g id="_x35_.3_fill">
</g>
<g id="_x35_.3_kontur">
</g>
<g id="_x35_.4_fill">
</g>
<g id="_x35_.4_kontur">
</g>
<g id="_x35_.5_fill">
</g>
<g id="_x35_.5_kontur">
</g>
<g id="_x35_.6_fill">
</g>
<g id="_x35_.6_kontur">
</g>
<g id="_x35_.7_fill">
</g>
<g id="_x35_.7_kontur">
</g>
<g id="_x35_.8_fill">
</g>
<g id="_x35_.8_kontur">
</g>
<g id="_x36_.1_fill">
</g>
<g id="_x36_.1_kontur">
</g>
<g id="_x36_.2_fill">
</g>
<g id="_x36_.2_kontur">
</g>
<g id="_x36_.3_Fill">
</g>
<g id="_x36_.3_kontur">
</g>
<g id="_x36_.4_fill">
</g>
<g id="_x36_.4_kontur">
</g>
<g id="_x36_.5_fill">
</g>
<g id="_x36_.5_kontur">
</g>
<g id="_x37_.1_fill">
</g>
<g id="_x37_.1_kontur">
</g>
<g id="_x37_.2_fill">
</g>
<g id="_x37_.2_kontur">
</g>
<g id="_x38_.1_fill">
</g>
<g id="_x38_.1_kontur">
</g>
<g id="_x38_.2_fill">
</g>
<g id="_x38_.2_kontur">
</g>
<g id="_x38_.3_fill">
</g>
<g id="_x38_.3_kontur">
</g>
<g id="_x38_.4_fill">
</g>
<g id="_x38_.4_kontur">
</g>
<g id="_x38_.5_fill">
</g>
<g id="_x38_.5_kontur">
</g>
<g id="_x39_.1_fill">
</g>
<g id="_x39_.1_kontur">
</g>
<g id="_x39_.2_fill">
</g>
<g id="_x39_.2_kontur">
</g>
<g id="_x39_.3_fill">
</g>
<g id="_x39_.3_kontur">
</g>
<g id="_x39_.4_fill">
</g>
<g id="_x39_.4_kontur">
</g>
<g id="_x39_.5_fill">
</g>
<g id="_x39_.5_kontur">
</g>
<g id="_x31_0.1_fill">
</g>
<g id="_x31_0.1_kontur">
</g>
<g id="_x31_0.2_fill">
</g>
<g id="_x31_0.2_kontur">
</g>
<g id="_x31_0.3_fill">
</g>
<g id="_x31_0.3_kontur">
</g>
<g id="_x31_0.4_fill">
</g>
<g id="_x31_0.4_kontur">
</g>
<g id="_x31_1.1_fill">
</g>
<g id="_x31_1.1_kontur">
</g>
<g id="_x31_1.2_fill">
	<g>
		<path fill="#FFFFFF" d="M81.7,81.6c9,15.3,21.3,29.7,36.4,36.5C111.4,102.9,97,90.6,81.7,81.6z"/>
		<path fill="#FFFFFF" d="M123.4,123.3c-4.2,1-8.5,1.9-12.7,2.6c-0.1,0-0.2,0-0.3,0c-53.7,9.8-71.1-43.2-86.5-86.7
			c-1.8-5.5-3.7-11.2-6.1-16.7c-1-2.7-2.1-5.3-3.2-7.8c0-0.1-0.1-0.2-0.1-0.3c0.1,0,0.2,0.1,0.3,0.1c2.5,1.1,5.1,2.1,7.8,3.2
			c5.5,2.3,11.2,4.3,16.7,6.1c43.5,15.3,96.5,32.7,86.7,86.5c0,0.1,0,0.2,0,0.3C125.3,114.8,124.4,119.1,123.4,123.3z"/>
	</g>
</g>
<g id="_x31_1.2_kontur">
	<g>
		<path fill="none" stroke="#000000" stroke-width="0.75" stroke-miterlimit="10" d="M81.7,81.6c9,15.3,21.3,29.7,36.4,36.5
			C111.5,102.9,97.1,90.6,81.7,81.6z"/>
		<path fill="none" stroke="#000000" stroke-width="0.75" stroke-miterlimit="10" d="M123.5,123.3c-4.2,1-8.5,1.9-12.7,2.6
			c-0.1,0-0.2,0-0.3,0C56.7,135.7,39.3,82.7,24,39.2c-1.8-5.5-3.7-11.2-6.1-16.7c-1-2.7-2.1-5.3-3.2-7.8c0-0.1-0.1-0.2-0.1-0.3
			c0.1,0,0.2,0.1,0.3,0.1c2.5,1.1,5.1,2.1,7.8,3.2c5.5,2.3,11.2,4.3,16.7,6.1c43.5,15.3,96.5,32.7,86.7,86.5c0,0.1,0,0.2,0,0.3
			C125.3,114.8,124.5,119.1,123.5,123.3z"/>
	</g>
</g>
<g id="_x31_1.3_fill">
</g>
<g id="_x31_1.3_kontur">
</g>
<g id="_x31_1.4_fill">
</g>
<g id="_x31_1.4_kontur">
</g>
<g id="_x31_1.5_fill">
</g>
<g id="_x31_1.5_kontur">
</g>
<g id="_x31_2.1_fill">
</g>
<g id="_x31_2.1_kontur">
</g>
<g id="_x31_2.2_fill">
</g>
<g id="_x31_2.2_kontur">
</g>
<g id="_x31_2.3_fill">
</g>
<g id="_x31_2.3_kontur">
</g>
<g id="_x31_2.4_fill">
</g>
<g id="_x31_2.4_kontur">
</g>
<g id="_x31_3.1_fill">
</g>
<g id="_x31_3.1_kontur">
</g>
<g id="_x31_3.2_fill">
</g>
<g id="_x31_3.2_kontur">
</g>
<g id="_x31_3.3_fill">
</g>
<g id="_x31_3.3_kontur">
</g>
<g id="_x31_3.4_fill">
</g>
<g id="_x31_3.4_kontur">
</g>
<g id="_x31_3.5_fill">
</g>
<g id="_x31_3.5_kontur">
</g>
<g id="_x31_4.1_fill">
</g>
<g id="_x31_4.1_kontur">
</g>
<g id="_x31_4.2_fil">
</g>
<g id="_x31_4.2_kontur">
</g>
<g id="_x31_4.3_fill">
</g>
<g id="_x31_4.3_kontur">
</g>
<g id="_x31_4.4_fill">
</g>
<g id="_x31_4.4_kontur">
</g>
<g id="_x31_4.5_fill">
</g>
<g id="_x31_4.5_kontur">
</g>
<g id="_x31_4.6_fill">
</g>
<g id="_x31_4.6_kontur">
</g>
<g id="_x31_4.7_fill">
</g>
<g id="_x31_4.7_kontur">
</g>
<g id="_x31_4.8_fill">
</g>
<g id="_x31_4.8_kontur">
</g>
<g id="_x31_5.1_fill">
</g>
<g id="_x31_5.1_kontur">
</g>
<g id="_x31_5.2_kontur">
</g>
<g id="_x31_5.3_fill">
</g>
<g id="_x31_5.3_kontur">
</g>
<g id="_x31_6.1_Fill">
</g>
<g id="_x31_6.1_Stroke">
</g>
<g id="_x31_6.2_Fll">
</g>
<g id="_x31_6.2_Stroke">
	<g id="_x31_.2_Fll_copy">
	</g>
</g>
<g id="_x31_6.3_Fill">
</g>
<g id="_x31_6.3_Stroke">
	<g id="_x31_.3_Fill_copy">
	</g>
</g>
<g id="_x31_7.1_Fill">
</g>
<g id="_x31_78.1_Stroke">
</g>
<g id="_x31_7.2_Fll">
</g>
<g id="_x31_7.2_Stroke">
	<g id="_x31_7.2_Fll_copy">
	</g>
</g>
<g id="_x31_7.3_Fill">
</g>
<g id="_x31_7.3_Stroke">
	<g id="_x31_7.3_Fill_copy">
	</g>
</g>
<g id="_x31_9.1_fill">
</g>
<g id="_x31_9.1_kontur">
</g>
<g id="_x31_9.2_fill">
</g>
<g id="_x31_9.2_kontur">
</g>
<g id="_x31_9.3_fill">
</g>
<g id="_x31_9.3_kontur">
</g>
<g id="_x31_9.4_fill">
</g>
<g id="_x31_9.4_kontur">
</g>
<g id="_x32_0.1_fill">
</g>
<g id="_x32_0.1_kontur">
</g>
<g id="_x32_0.2_fill">
</g>
<g id="_x32_0.2_kontur">
</g>
<g id="_x32_0.3_fill">
</g>
<g id="_x32_0.3_kontur">
</g>
<g id="_x32_0.4_fill">
</g>
<g id="_x32_0.4_kontur">
</g>
<g id="_x31_8.1_Fill">
</g>
<g id="_x31_8.1_Stroke">
</g>
<g id="_x31_8.2_Fll">
</g>
<g id="_x31_8.2_Stroke">
	<g id="_x31_.2_Fll_copy_1_">
	</g>
</g>
<g id="_x31_8.3_Fill">
</g>
<g id="_x31_8.3_Stroke">
	<g id="_x31_.3_Fill_copy_1_">
	</g>
</g>
<g id="_x32_2.1_Fill">
</g>
<g id="_x32_2.1_Stroke">
	<g id="_x31_8.1_Fill_copy">
	</g>
</g>
<g id="_x32_2.2_Fll">
</g>
<g id="_x32_2.2_Stroke">
</g>
<g id="_x32_2.3_Fill">
</g>
<g id="_x32_2.3_Stroke">
</g>
<g id="_x32_2.4_Fill_copy">
</g>
<g id="_x32_2.4_Stroke_copy">
</g>
<g id="_x32_3.1_fill">
</g>
<g id="_x32_3.1_kontur">
</g>
<g id="_x32_3.2_fill">
</g>
<g id="_x32_3.2_kontur">
</g>
<g id="_x32_3.3_fill">
</g>
<g id="_x32_3.3_kontur">
</g>
<g id="_x32_3.4_fill">
</g>
<g id="_x32_3.4_kontur">
</g>
<g id="_x32_3.2_Fll_copy_2">
</g>
<g id="_x32_3.2_Stroke_copy">
	<g id="_x31_7.2_Fll_copy_3">
	</g>
</g>
</svg>
