<?xml version="1.0" encoding="utf-8"?>
<!-- Generator: Adobe Illustrator 20.0.0, SVG Export Plug-In . SVG Version: 6.00 Build 0)  -->
<svg version="1.2" baseProfile="tiny" xmlns="http://www.w3.org/2000/svg" xmlns:xlink="http://www.w3.org/1999/xlink" x="0px"
	 y="0px" viewBox="0 0 141.7 141.7" xml:space="preserve">
<g id="_x31_.1_Fill">
</g>
<g id="_x31_.1_Stroke">
</g>
<g id="_x31_.2_Fll">
</g>
<g id="_x31_.2_Stroke">
</g>
<g id="_x31_.3_Fill">
</g>
<g id="_x31_.3_Stroke">
</g>
<g id="_x32_.1_fill">
</g>
<g id="_x32_.1_kontur">
</g>
<g id="_x32_.2_fill">
</g>
<g id="_x32_.2_kontur">
</g>
<g id="_x32_.3_fill">
</g>
<g id="_x32_.3_kontur">
</g>
<g id="_x32_.4_fill">
</g>
<g id="_x32_.4_kontur">
</g>
<g id="_x32_.5_fill">
</g>
<g id="_x32_.5_kontur">
</g>
<g id="_x33_.1_fill">
</g>
<g id="_x33_.1_kontur">
</g>
<g id="_x33_.2_fil">
</g>
<g id="_x33_.2_kontur">
</g>
<g id="_x33_.3_fill">
</g>
<g id="_x33_.3_kontur">
</g>
<g id="_x33_.4_fill">
</g>
<g id="_x33_.4_kontur">
</g>
<g id="_x33_.5_fill">
</g>
<g id="_x33_.5_kontur">
</g>
<g id="_x34_.1_Fill">
</g>
<g id="_x34_.1_Stroke">
</g>
<g id="_x34_.2_Fll">
</g>
<g id="_x34_.2_Stroke">
</g>
<g id="_x34_.3_Fill">
</g>
<g id="_x34_.3_Stroke">
</g>
<g id="_x35_.1_fill">
</g>
<g id="_x35_.1_kontur">
</g>
<g id="_x35_.2_fill">
</g>
<g id="_x35_.2_kontur">
</g>
<g id="_x35_.3_fill">
</g>
<g id="_x35_.3_kontur">
</g>
<g id="_x35_.4_fill">
</g>
<g id="_x35_.4_kontur">
</g>
<g id="_x35_.5_fill">
</g>
<g id="_x35_.5_kontur">
</g>
<g id="_x35_.6_fill">
</g>
<g id="_x35_.6_kontur">
</g>
<g id="_x35_.7_fill">
</g>
<g id="_x35_.7_kontur">
</g>
<g id="_x35_.8_fill">
</g>
<g id="_x35_.8_kontur">
</g>
<g id="_x36_.1_fill">
</g>
<g id="_x36_.1_kontur">
</g>
<g id="_x36_.2_fill">
</g>
<g id="_x36_.2_kontur">
</g>
<g id="_x36_.3_Fill">
</g>
<g id="_x36_.3_kontur">
</g>
<g id="_x36_.4_fill">
</g>
<g id="_x36_.4_kontur">
</g>
<g id="_x36_.5_fill">
</g>
<g id="_x36_.5_kontur">
</g>
<g id="_x37_.1_fill">
</g>
<g id="_x37_.1_kontur">
</g>
<g id="_x37_.2_fill">
</g>
<g id="_x37_.2_kontur">
</g>
<g id="_x38_.1_fill">
</g>
<g id="_x38_.1_kontur">
</g>
<g id="_x38_.2_fill">
</g>
<g id="_x38_.2_kontur">
</g>
<g id="_x38_.3_fill">
</g>
<g id="_x38_.3_kontur">
</g>
<g id="_x38_.4_fill">
</g>
<g id="_x38_.4_kontur">
</g>
<g id="_x38_.5_fill">
</g>
<g id="_x38_.5_kontur">
</g>
<g id="_x39_.1_fill">
</g>
<g id="_x39_.1_kontur">
</g>
<g id="_x39_.2_fill">
</g>
<g id="_x39_.2_kontur">
</g>
<g id="_x39_.3_fill">
</g>
<g id="_x39_.3_kontur">
</g>
<g id="_x39_.4_fill">
</g>
<g id="_x39_.4_kontur">
</g>
<g id="_x39_.5_fill">
</g>
<g id="_x39_.5_kontur">
</g>
<g id="_x31_0.1_fill">
</g>
<g id="_x31_0.1_kontur">
</g>
<g id="_x31_0.2_fill">
</g>
<g id="_x31_0.2_kontur">
</g>
<g id="_x31_0.3_fill">
</g>
<g id="_x31_0.3_kontur">
</g>
<g id="_x31_0.4_fill">
	<g>
		<path fill="#FFFFFF" d="M55.9,56.6c-6.3,6.9,3.6,16.5,10.7,10.7C72.3,60.2,62.7,50.4,55.9,56.6z"/>
		<path fill="#FFFFFF" d="M36.6,37.4c4.4-5.7-3.1-13.4-8.5-8.5C23.3,34.3,31,41.8,36.6,37.4z"/>
		<path fill="#FFFFFF" d="M76.3,47c-8.2-8.2-22.1-8.3-30.4-0.3c-8,8.3-7.9,22.2,0.3,30.4c8.6,8.6,21.5,7.8,30.4,0.3
			C84.1,68.5,84.9,55.6,76.3,47z M68.7,69.2c0,0.1-0.1,0.1-0.1,0.2c-0.1,0-0.1,0.1-0.2,0.1c-4.4,3.5-10.7,3.6-14.7-0.8
			c-3.5-4-3.5-10.1,0.1-14c3.9-3.6,10-3.6,14-0.1C72.3,58.5,72.2,64.8,68.7,69.2z"/>
		<path fill="#FFFFFF" d="M59.6,30.1c5.1-5.8-3-14.1-8.6-8.6C45.5,27,53.7,35.2,59.6,30.1z"/>
		<path fill="#FFFFFF" d="M20.7,51.8c-5.6,5.6,2.8,13.7,8.6,8.6C34.4,54.5,26.3,46.2,20.7,51.8z"/>
		<path fill="#FFFFFF" d="M102,85.7c-4.7-4.7-12.6-4.8-17.4-0.3c-4.5,4.8-4.4,12.7,0.3,17.4c4.9,4.9,12.3,4.5,17.4,0.3
			C106.5,98,106.9,90.6,102,85.7z"/>
		<path fill="#FFFFFF" d="M111.1,111.9c-4.8,5.4,2.9,13,8.5,8.5C124.1,114.7,116.5,107,111.1,111.9z"/>
		<path fill="#FFFFFF" d="M77.1,44c-9.4-8.3-24.1-8-33.2,0.7c-8.7,9.1-9.1,23.8-0.7,33.2c9.6,10.8,24.9,10.4,35.4,1.4
			C87.5,68.9,88,53.5,77.1,44z M46.2,77.1C38,68.9,37.9,55,45.9,46.7c8.3-8,22.2-7.9,30.4,0.3c8.6,8.6,7.8,21.5,0.3,30.4
			C67.8,84.8,54.8,85.7,46.2,77.1z"/>
		<path fill="#FFFFFF" d="M67.9,54.6c-4-3.5-10.1-3.5-14,0.1c-3.6,3.9-3.6,10-0.1,14c4,4.5,10.2,4.3,14.7,0.8c0.1,0,0.1,0,0.2-0.1
			c0-0.1,0.1-0.1,0.1-0.2C72.2,64.8,72.3,58.5,67.9,54.6z M66.6,67.4c-7.2,5.7-17-3.9-10.7-10.7C62.7,50.4,72.3,60.2,66.6,67.4z"/>
		<path fill="#FFFFFF" d="M103.3,83c-5.9-5.2-15-5.1-20.7,0.3c-5.4,5.7-5.5,14.8-0.3,20.7c6,6.7,15.5,6.5,22,1
			C109.8,98.5,110,89,103.3,83z M102.3,103.1c-5.1,4.2-12.5,4.6-17.4-0.3c-4.7-4.7-4.8-12.6-0.3-17.4c4.8-4.5,12.7-4.4,17.4,0.3
			C106.9,90.6,106.5,98,102.3,103.1z"/>
		<path fill="#FFFFFF" d="M121,109.9c-3.4-3-8.5-3-11.9,0c-3,3.3-3,8.5,0,11.9c3.3,3.8,8.6,3.7,12.4,0.7c0.1,0,0.1-0.1,0.2-0.1
			c0-0.1,0.1-0.1,0.1-0.2C124.6,118.5,124.8,113.2,121,109.9z M119.6,120.4c-5.7,4.4-13.4-3.1-8.5-8.5
			C116.5,107,124.1,114.7,119.6,120.4z"/>
		<path fill="#FFFFFF" d="M38.5,39.5c0.1,0,0.1-0.1,0.2-0.1c0-0.1,0.1-0.1,0.1-0.2c2.9-3.8,3-9-0.7-12.4c-3.4-3-8.5-3-11.9,0
			c-3,3.3-3,8.5,0,11.9C29.4,42.5,34.7,42.4,38.5,39.5z M28.1,28.9c5.4-4.8,13,2.9,8.5,8.5C31,41.8,23.3,34.3,28.1,28.9z"/>
		<path fill="#FFFFFF" d="M18.7,49.8c-3.3,3.3-3.4,8.7-0.3,12.2c3.3,3.8,8.6,3.7,12.4,0.7c0.2-0.1,0.3-0.2,0.5-0.4
			c0.2-0.2,0.3-0.3,0.4-0.5c2.8-3.6,3.1-8.6-0.4-12.1C27.9,46.4,22.1,46.4,18.7,49.8z M29.3,60.3c-5.8,5.1-14.1-3-8.6-8.6
			C26.3,46.2,34.4,54.5,29.3,60.3z"/>
		<path fill="#FFFFFF" d="M61.1,32.4c0.2-0.1,0.3-0.2,0.5-0.4c0.2-0.2,0.3-0.3,0.4-0.5c2.9-3.8,3-9-0.7-12.4
			c-3.5-3.1-8.9-3-12.2,0.3c-3.4,3.4-3.4,9.2,0,12.6C52.4,35.5,57.5,35.2,61.1,32.4z M51,21.5c5.6-5.6,13.7,2.8,8.6,8.6
			C53.7,35.2,45.5,27,51,21.5z"/>
	</g>
</g>
<g id="_x31_0.4_kontur">
	<g>
		<path fill="none" stroke="#000000" stroke-width="0.75" stroke-miterlimit="10" d="M55.9,56.6c-6.3,6.9,3.6,16.5,10.7,10.7
			C72.3,60.2,62.7,50.4,55.9,56.6z"/>
		<path fill="none" stroke="#000000" stroke-width="0.75" stroke-miterlimit="10" d="M36.6,37.4c4.4-5.7-3.1-13.4-8.5-8.5
			C23.3,34.3,31,41.8,36.6,37.4z"/>
		<path fill="none" stroke="#000000" stroke-width="0.75" stroke-miterlimit="10" d="M76.3,47c-8.2-8.2-22.1-8.3-30.4-0.3
			c-8,8.3-7.9,22.2,0.3,30.4c8.6,8.6,21.5,7.8,30.4,0.3C84.1,68.5,84.9,55.6,76.3,47z M68.7,69.2c0,0.1-0.1,0.1-0.1,0.2
			c-0.1,0-0.1,0.1-0.2,0.1c-4.4,3.5-10.7,3.6-14.7-0.8c-3.5-4-3.5-10.1,0.1-14c3.9-3.6,10-3.6,14-0.1C72.3,58.5,72.2,64.8,68.7,69.2
			z"/>
		<path fill="none" stroke="#000000" stroke-width="0.75" stroke-miterlimit="10" d="M59.6,30.1c5.1-5.8-3-14.1-8.6-8.6
			C45.5,27,53.7,35.2,59.6,30.1z"/>
		<path fill="none" stroke="#000000" stroke-width="0.75" stroke-miterlimit="10" d="M20.7,51.8c-5.6,5.6,2.8,13.7,8.6,8.6
			C34.4,54.5,26.3,46.2,20.7,51.8z"/>
		<path fill="none" stroke="#000000" stroke-width="0.75" stroke-miterlimit="10" d="M102,85.7c-4.7-4.7-12.6-4.8-17.4-0.3
			c-4.5,4.8-4.4,12.7,0.3,17.4c4.9,4.9,12.3,4.5,17.4,0.3C106.5,98,106.9,90.6,102,85.7z"/>
		<path fill="none" stroke="#000000" stroke-width="0.75" stroke-miterlimit="10" d="M111.1,111.9c-4.8,5.4,2.9,13,8.5,8.5
			C124.1,114.7,116.5,107,111.1,111.9z"/>
		<path fill="none" stroke="#000000" stroke-width="0.75" stroke-miterlimit="10" d="M77.1,44c-9.4-8.3-24.1-8-33.2,0.7
			c-8.7,9.1-9.1,23.8-0.7,33.2c9.6,10.8,24.9,10.4,35.4,1.4C87.5,68.9,88,53.5,77.1,44z M46.2,77.1C38,68.9,37.9,55,45.9,46.7
			c8.3-8,22.2-7.9,30.4,0.3c8.6,8.6,7.8,21.5,0.3,30.4C67.8,84.8,54.8,85.7,46.2,77.1z"/>
		<path fill="none" stroke="#000000" stroke-width="0.75" stroke-miterlimit="10" d="M67.9,54.6c-4-3.5-10.1-3.5-14,0.1
			c-3.6,3.9-3.6,10-0.1,14c4,4.5,10.2,4.3,14.7,0.8c0.1,0,0.1,0,0.2-0.1c0-0.1,0.1-0.1,0.1-0.2C72.2,64.8,72.3,58.5,67.9,54.6z
			 M66.6,67.4c-7.2,5.7-17-3.9-10.7-10.7C62.7,50.4,72.3,60.2,66.6,67.4z"/>
		<path fill="none" stroke="#000000" stroke-width="0.75" stroke-miterlimit="10" d="M103.3,83c-5.9-5.2-15-5.1-20.7,0.3
			c-5.4,5.7-5.5,14.8-0.3,20.7c6,6.7,15.5,6.5,22,1C109.8,98.5,110,89,103.3,83z M102.3,103.1c-5.1,4.2-12.5,4.6-17.4-0.3
			c-4.7-4.7-4.8-12.6-0.3-17.4c4.8-4.5,12.7-4.4,17.4,0.3C106.9,90.6,106.5,98,102.3,103.1z"/>
		<path fill="none" stroke="#000000" stroke-width="0.75" stroke-miterlimit="10" d="M121,109.9c-3.4-3-8.5-3-11.9,0
			c-3,3.3-3,8.5,0,11.9c3.3,3.8,8.6,3.7,12.4,0.7c0.1,0,0.1-0.1,0.2-0.1c0-0.1,0.1-0.1,0.1-0.2C124.6,118.5,124.8,113.2,121,109.9z
			 M119.6,120.4c-5.7,4.4-13.4-3.1-8.5-8.5C116.5,107,124.1,114.7,119.6,120.4z"/>
		<path fill="none" stroke="#000000" stroke-width="0.75" stroke-miterlimit="10" d="M38.5,39.5c0.1,0,0.1-0.1,0.2-0.1
			c0-0.1,0.1-0.1,0.1-0.2c2.9-3.8,3-9-0.7-12.4c-3.4-3-8.5-3-11.9,0c-3,3.3-3,8.5,0,11.9C29.4,42.5,34.7,42.4,38.5,39.5z M28.1,28.9
			c5.4-4.8,13,2.9,8.5,8.5C31,41.8,23.3,34.3,28.1,28.9z"/>
		<path fill="none" stroke="#000000" stroke-width="0.75" stroke-miterlimit="10" d="M18.7,49.8c-3.3,3.3-3.4,8.7-0.3,12.2
			c3.3,3.8,8.6,3.7,12.4,0.7c0.2-0.1,0.3-0.2,0.5-0.4c0.2-0.2,0.3-0.3,0.4-0.5c2.8-3.6,3.1-8.6-0.4-12.1
			C27.9,46.4,22.1,46.4,18.7,49.8z M29.3,60.3c-5.8,5.1-14.1-3-8.6-8.6C26.3,46.2,34.4,54.5,29.3,60.3z"/>
		<path fill="none" stroke="#000000" stroke-width="0.75" stroke-miterlimit="10" d="M61.1,32.4c0.2-0.1,0.3-0.2,0.5-0.4
			c0.2-0.2,0.3-0.3,0.4-0.5c2.9-3.8,3-9-0.7-12.4c-3.5-3.1-8.9-3-12.2,0.3c-3.4,3.4-3.4,9.2,0,12.6C52.4,35.5,57.5,35.2,61.1,32.4z
			 M51,21.5c5.6-5.6,13.7,2.8,8.6,8.6C53.7,35.2,45.5,27,51,21.5z"/>
	</g>
</g>
<g id="_x31_1.1_fill">
</g>
<g id="_x31_1.1_kontur">
</g>
<g id="_x31_1.2_fill">
</g>
<g id="_x31_1.2_kontur">
</g>
<g id="_x31_1.3_fill">
</g>
<g id="_x31_1.3_kontur">
</g>
<g id="_x31_1.4_fill">
</g>
<g id="_x31_1.4_kontur">
</g>
<g id="_x31_1.5_fill">
</g>
<g id="_x31_1.5_kontur">
</g>
<g id="_x31_2.1_fill">
</g>
<g id="_x31_2.1_kontur">
</g>
<g id="_x31_2.2_fill">
</g>
<g id="_x31_2.2_kontur">
</g>
<g id="_x31_2.3_fill">
</g>
<g id="_x31_2.3_kontur">
</g>
<g id="_x31_2.4_fill">
</g>
<g id="_x31_2.4_kontur">
</g>
<g id="_x31_3.1_fill">
</g>
<g id="_x31_3.1_kontur">
</g>
<g id="_x31_3.2_fill">
</g>
<g id="_x31_3.2_kontur">
</g>
<g id="_x31_3.3_fill">
</g>
<g id="_x31_3.3_kontur">
</g>
<g id="_x31_3.4_fill">
</g>
<g id="_x31_3.4_kontur">
</g>
<g id="_x31_3.5_fill">
</g>
<g id="_x31_3.5_kontur">
</g>
<g id="_x31_4.1_fill">
</g>
<g id="_x31_4.1_kontur">
</g>
<g id="_x31_4.2_fil">
</g>
<g id="_x31_4.2_kontur">
</g>
<g id="_x31_4.3_fill">
</g>
<g id="_x31_4.3_kontur">
</g>
<g id="_x31_4.4_fill">
</g>
<g id="_x31_4.4_kontur">
</g>
<g id="_x31_4.5_fill">
</g>
<g id="_x31_4.5_kontur">
</g>
<g id="_x31_4.6_fill">
</g>
<g id="_x31_4.6_kontur">
</g>
<g id="_x31_4.7_fill">
</g>
<g id="_x31_4.7_kontur">
</g>
<g id="_x31_4.8_fill">
</g>
<g id="_x31_4.8_kontur">
</g>
<g id="_x31_5.1_fill">
</g>
<g id="_x31_5.1_kontur">
</g>
<g id="_x31_5.2_kontur">
</g>
<g id="_x31_5.3_fill">
</g>
<g id="_x31_5.3_kontur">
</g>
<g id="_x31_6.1_Fill">
</g>
<g id="_x31_6.1_Stroke">
</g>
<g id="_x31_6.2_Fll">
</g>
<g id="_x31_6.2_Stroke">
	<g id="_x31_.2_Fll_copy">
	</g>
</g>
<g id="_x31_6.3_Fill">
</g>
<g id="_x31_6.3_Stroke">
	<g id="_x31_.3_Fill_copy">
	</g>
</g>
<g id="_x31_7.1_Fill">
</g>
<g id="_x31_78.1_Stroke">
</g>
<g id="_x31_7.2_Fll">
</g>
<g id="_x31_7.2_Stroke">
	<g id="_x31_7.2_Fll_copy">
	</g>
</g>
<g id="_x31_7.3_Fill">
</g>
<g id="_x31_7.3_Stroke">
	<g id="_x31_7.3_Fill_copy">
	</g>
</g>
<g id="_x31_9.1_fill">
</g>
<g id="_x31_9.1_kontur">
</g>
<g id="_x31_9.2_fill">
</g>
<g id="_x31_9.2_kontur">
</g>
<g id="_x31_9.3_fill">
</g>
<g id="_x31_9.3_kontur">
</g>
<g id="_x31_9.4_fill">
</g>
<g id="_x31_9.4_kontur">
</g>
<g id="_x32_0.1_fill">
</g>
<g id="_x32_0.1_kontur">
</g>
<g id="_x32_0.2_fill">
</g>
<g id="_x32_0.2_kontur">
</g>
<g id="_x32_0.3_fill">
</g>
<g id="_x32_0.3_kontur">
</g>
<g id="_x32_0.4_fill">
</g>
<g id="_x32_0.4_kontur">
</g>
<g id="_x31_8.1_Fill">
</g>
<g id="_x31_8.1_Stroke">
</g>
<g id="_x31_8.2_Fll">
</g>
<g id="_x31_8.2_Stroke">
	<g id="_x31_.2_Fll_copy_1_">
	</g>
</g>
<g id="_x31_8.3_Fill">
</g>
<g id="_x31_8.3_Stroke">
	<g id="_x31_.3_Fill_copy_1_">
	</g>
</g>
<g id="_x32_2.1_Fill">
</g>
<g id="_x32_2.1_Stroke">
	<g id="_x31_8.1_Fill_copy">
	</g>
</g>
<g id="_x32_2.2_Fll">
</g>
<g id="_x32_2.2_Stroke">
</g>
<g id="_x32_2.3_Fill">
</g>
<g id="_x32_2.3_Stroke">
</g>
<g id="_x32_2.4_Fill_copy">
</g>
<g id="_x32_2.4_Stroke_copy">
</g>
<g id="_x32_3.1_fill">
</g>
<g id="_x32_3.1_kontur">
</g>
<g id="_x32_3.2_fill">
</g>
<g id="_x32_3.2_kontur">
</g>
<g id="_x32_3.3_fill">
</g>
<g id="_x32_3.3_kontur">
</g>
<g id="_x32_3.4_fill">
</g>
<g id="_x32_3.4_kontur">
</g>
<g id="_x32_3.2_Fll_copy_2">
</g>
<g id="_x32_3.2_Stroke_copy">
	<g id="_x31_7.2_Fll_copy_3">
	</g>
</g>
</svg>
