<?xml version="1.0" encoding="utf-8"?>
<!-- Generator: Adobe Illustrator 20.0.0, SVG Export Plug-In . SVG Version: 6.00 Build 0)  -->
<svg version="1.2" baseProfile="tiny" xmlns="http://www.w3.org/2000/svg" xmlns:xlink="http://www.w3.org/1999/xlink" x="0px"
	 y="0px" viewBox="0 0 141.7 141.7" xml:space="preserve">
<g id="_x31_.1_Fill">
</g>
<g id="_x31_.1_Stroke">
</g>
<g id="_x31_.2_Fll">
</g>
<g id="_x31_.2_Stroke">
</g>
<g id="_x31_.3_Fill">
</g>
<g id="_x31_.3_Stroke">
</g>
<g id="_x32_.1_fill">
</g>
<g id="_x32_.1_kontur">
</g>
<g id="_x32_.2_fill">
</g>
<g id="_x32_.2_kontur">
</g>
<g id="_x32_.3_fill">
	<g>
		<path fill="#FFFFFF" d="M13.4,70.8c1.1,7.4,2.4,14.7,3.7,22c4.2,6.1,8.5,12.2,12.9,18.2c6,4.4,12.1,8.7,18.2,12.9
			c7.3,1.4,14.6,2.6,22,3.8c7.4-1.1,14.7-2.4,22-3.8c6.1-4.2,12.2-8.5,18.2-12.9c4.4-6,8.7-12.1,12.9-18.2c1.4-7.3,2.6-14.6,3.8-22
			c-1.1-7.4-2.4-14.7-3.8-22c-4.2-6.1-8.5-12.2-12.9-18.2c-6-4.4-12.1-8.7-18.2-12.9c-7.3-1.4-14.6-2.6-22-3.8
			c-7.4,1.1-14.7,2.4-22,3.8c-6.1,4.2-12.2,8.5-18.2,12.9c-4.4,6-8.7,12.1-12.9,18.2C15.8,56.1,14.5,63.4,13.4,70.8z"/>
		<path fill="none" stroke="#252021" stroke-width="0.75" stroke-miterlimit="10" d="M13.4,70.8c1.1,7.4,2.4,14.7,3.7,22
			c4.2,6.1,8.5,12.2,12.9,18.2c6,4.4,12.1,8.7,18.2,12.9c7.3,1.4,14.6,2.6,22,3.8c7.4-1.1,14.7-2.4,22-3.8
			c6.1-4.2,12.2-8.5,18.2-12.9c4.4-6,8.7-12.1,12.9-18.2c1.4-7.3,2.6-14.6,3.8-22c-1.1-7.4-2.4-14.7-3.8-22
			c-4.2-6.1-8.5-12.2-12.9-18.2c-6-4.4-12.1-8.7-18.2-12.9c-7.3-1.4-14.6-2.6-22-3.8c-7.4,1.1-14.7,2.4-22,3.8
			c-6.1,4.2-12.2,8.5-18.2,12.9c-4.4,6-8.7,12.1-12.9,18.2C15.8,56.1,14.5,63.4,13.4,70.8z"/>
	</g>
</g>
<g id="_x32_.3_kontur">
	<g>
		<path fill="#FFFFFF" d="M13.4,70.8c1.1,7.4,2.4,14.7,3.7,22c4.2,6.1,8.5,12.2,12.9,18.2c6,4.4,12.1,8.7,18.2,12.9
			c7.3,1.4,14.6,2.6,22,3.8c7.4-1.1,14.7-2.4,22-3.8c6.1-4.2,12.2-8.5,18.2-12.9c4.4-6,8.7-12.1,12.9-18.2c1.4-7.3,2.6-14.6,3.8-22
			c-1.1-7.4-2.4-14.7-3.8-22c-4.2-6.1-8.5-12.2-12.9-18.2c-6-4.4-12.1-8.7-18.2-12.9c-7.3-1.4-14.6-2.6-22-3.8
			c-7.4,1.1-14.7,2.4-22,3.8c-6.1,4.2-12.2,8.5-18.2,12.9c-4.4,6-8.7,12.1-12.9,18.2C15.8,56.1,14.5,63.4,13.4,70.8z"/>
		<path fill="none" stroke="#252021" stroke-width="0.75" stroke-miterlimit="10" d="M13.4,70.8c1.1,7.4,2.4,14.7,3.7,22
			c4.2,6.1,8.5,12.2,12.9,18.2c6,4.4,12.1,8.7,18.2,12.9c7.3,1.4,14.6,2.6,22,3.8c7.4-1.1,14.7-2.4,22-3.8
			c6.1-4.2,12.2-8.5,18.2-12.9c4.4-6,8.7-12.1,12.9-18.2c1.4-7.3,2.6-14.6,3.8-22c-1.1-7.4-2.4-14.7-3.8-22
			c-4.2-6.1-8.5-12.2-12.9-18.2c-6-4.4-12.1-8.7-18.2-12.9c-7.3-1.4-14.6-2.6-22-3.8c-7.4,1.1-14.7,2.4-22,3.8
			c-6.1,4.2-12.2,8.5-18.2,12.9c-4.4,6-8.7,12.1-12.9,18.2C15.8,56.1,14.5,63.4,13.4,70.8z"/>
	</g>
</g>
<g id="_x32_.4_fill">
</g>
<g id="_x32_.4_kontur">
</g>
<g id="_x32_.5_fill">
</g>
<g id="_x32_.5_kontur">
</g>
<g id="_x33_.1_fill">
</g>
<g id="_x33_.1_kontur">
</g>
<g id="_x33_.2_fil">
</g>
<g id="_x33_.2_kontur">
</g>
<g id="_x33_.3_fill">
</g>
<g id="_x33_.3_kontur">
</g>
<g id="_x33_.4_fill">
</g>
<g id="_x33_.4_kontur">
</g>
<g id="_x33_.5_fill">
</g>
<g id="_x33_.5_kontur">
</g>
<g id="_x34_.1_Fill">
</g>
<g id="_x34_.1_Stroke">
</g>
<g id="_x34_.2_Fll">
</g>
<g id="_x34_.2_Stroke">
</g>
<g id="_x34_.3_Fill">
</g>
<g id="_x34_.3_Stroke">
</g>
<g id="_x35_.1_fill">
</g>
<g id="_x35_.1_kontur">
</g>
<g id="_x35_.2_fill">
</g>
<g id="_x35_.2_kontur">
</g>
<g id="_x35_.3_fill">
</g>
<g id="_x35_.3_kontur">
</g>
<g id="_x35_.4_fill">
</g>
<g id="_x35_.4_kontur">
</g>
<g id="_x35_.5_fill">
</g>
<g id="_x35_.5_kontur">
</g>
<g id="_x35_.6_fill">
</g>
<g id="_x35_.6_kontur">
</g>
<g id="_x35_.7_fill">
</g>
<g id="_x35_.7_kontur">
</g>
<g id="_x35_.8_fill">
</g>
<g id="_x35_.8_kontur">
</g>
<g id="_x36_.1_fill">
</g>
<g id="_x36_.1_kontur">
</g>
<g id="_x36_.2_fill">
</g>
<g id="_x36_.2_kontur">
</g>
<g id="_x36_.3_Fill">
</g>
<g id="_x36_.3_kontur">
</g>
<g id="_x36_.4_fill">
</g>
<g id="_x36_.4_kontur">
</g>
<g id="_x36_.5_fill">
</g>
<g id="_x36_.5_kontur">
</g>
<g id="_x37_.1_fill">
</g>
<g id="_x37_.1_kontur">
</g>
<g id="_x37_.2_fill">
</g>
<g id="_x37_.2_kontur">
</g>
<g id="_x38_.1_fill">
</g>
<g id="_x38_.1_kontur">
</g>
<g id="_x38_.2_fill">
</g>
<g id="_x38_.2_kontur">
</g>
<g id="_x38_.3_fill">
</g>
<g id="_x38_.3_kontur">
</g>
<g id="_x38_.4_fill">
</g>
<g id="_x38_.4_kontur">
</g>
<g id="_x38_.5_fill">
</g>
<g id="_x38_.5_kontur">
</g>
<g id="_x39_.1_fill">
</g>
<g id="_x39_.1_kontur">
</g>
<g id="_x39_.2_fill">
</g>
<g id="_x39_.2_kontur">
</g>
<g id="_x39_.3_fill">
</g>
<g id="_x39_.3_kontur">
</g>
<g id="_x39_.4_fill">
</g>
<g id="_x39_.4_kontur">
</g>
<g id="_x39_.5_fill">
</g>
<g id="_x39_.5_kontur">
</g>
</svg>
