<?xml version="1.0" encoding="utf-8"?>
<!-- Generator: Adobe Illustrator 20.0.0, SVG Export Plug-In . SVG Version: 6.00 Build 0)  -->
<svg version="1.2" baseProfile="tiny" xmlns="http://www.w3.org/2000/svg" xmlns:xlink="http://www.w3.org/1999/xlink" x="0px"
	 y="0px" viewBox="0 0 141.7 141.7" xml:space="preserve">
<g id="_x31_.1_Fill">
</g>
<g id="_x31_.1_Stroke">
</g>
<g id="_x31_.2_Fll">
</g>
<g id="_x31_.2_Stroke">
</g>
<g id="_x31_.3_Fill">
</g>
<g id="_x31_.3_Stroke">
</g>
<g id="_x32_.1_fill">
</g>
<g id="_x32_.1_kontur">
</g>
<g id="_x32_.2_fill">
</g>
<g id="_x32_.2_kontur">
</g>
<g id="_x32_.3_fill">
</g>
<g id="_x32_.3_kontur">
</g>
<g id="_x32_.4_fill">
</g>
<g id="_x32_.4_kontur">
</g>
<g id="_x32_.5_fill">
</g>
<g id="_x32_.5_kontur">
</g>
<g id="_x33_.1_fill">
</g>
<g id="_x33_.1_kontur">
</g>
<g id="_x33_.2_fil">
</g>
<g id="_x33_.2_kontur">
</g>
<g id="_x33_.3_fill">
</g>
<g id="_x33_.3_kontur">
</g>
<g id="_x33_.4_fill">
</g>
<g id="_x33_.4_kontur">
</g>
<g id="_x33_.5_fill">
</g>
<g id="_x33_.5_kontur">
</g>
<g id="_x34_.1_Fill">
</g>
<g id="_x34_.1_Stroke">
</g>
<g id="_x34_.2_Fll">
</g>
<g id="_x34_.2_Stroke">
</g>
<g id="_x34_.3_Fill">
</g>
<g id="_x34_.3_Stroke">
</g>
<g id="_x35_.1_fill">
	<path fill="#FFFFFF" d="M71.3,106c1.9-1.2,3.8-2.3,5.6-3.4c0.3-0.2,0.4-0.4,0.5-0.7c0-0.1,0.1-0.2,0-0.4c-4.5-34.4,18.1-62.8,47-78
		c-13.9,11.2-26.3,24.7-32.6,41.6c-1.2,3.3-2.2,6.6-2.9,10c0,0.2-0.1,0.3-0.1,0.5c-0.9,4.7-1.4,9.4-1.3,14.2
		c0.1,3.9,0.5,14.3,4.3,18c-6.8,2-13.9,4.9-20.4,8.6c-6.6-3.7-13.6-6.6-20.5-8.5c3.8-3.7,4.1-14.1,4.2-18c0.1-4.8-0.4-9.5-1.3-14.2
		c0-0.2-0.1-0.3-0.1-0.5c-0.7-3.4-1.7-6.8-3-10c-6.4-16.9-18.9-30.3-32.8-41.4c29,15.1,51.7,43.4,47.4,77.8c0,0.1,0,0.3,0,0.4
		c0,0.3,0.2,0.5,0.5,0.7C67.5,103.6,69.4,104.8,71.3,106z"/>
</g>
<g id="_x35_.1_kontur">
	<path fill="none" stroke="#000000" stroke-width="0.75" stroke-miterlimit="10" d="M71.3,106c1.9-1.2,3.8-2.3,5.6-3.4
		c0.3-0.2,0.4-0.4,0.5-0.7c0-0.1,0.1-0.2,0-0.4c-4.5-34.4,18.1-62.8,47-78c-13.9,11.2-26.3,24.7-32.6,41.6c-1.2,3.3-2.2,6.6-2.9,10
		c0,0.2-0.1,0.3-0.1,0.5c-0.9,4.7-1.4,9.4-1.3,14.2c0.1,3.9,0.5,14.3,4.3,18c-6.8,2-13.9,4.9-20.4,8.6c-6.6-3.7-13.6-6.6-20.5-8.5
		c3.8-3.7,4.1-14.1,4.2-18c0.1-4.8-0.4-9.5-1.3-14.2c0-0.2-0.1-0.3-0.1-0.5c-0.7-3.4-1.7-6.8-3-10c-6.4-16.9-18.9-30.3-32.8-41.4
		c29,15.1,51.7,43.4,47.4,77.8c0,0.1,0,0.3,0,0.4c0,0.3,0.2,0.5,0.5,0.7C67.5,103.6,69.4,104.8,71.3,106z"/>
</g>
<g id="_x35_.2_fill">
</g>
<g id="_x35_.2_kontur">
</g>
<g id="_x35_.3_fill">
</g>
<g id="_x35_.3_kontur">
</g>
<g id="_x35_.4_fill">
</g>
<g id="_x35_.4_kontur">
</g>
<g id="_x35_.5_fill">
</g>
<g id="_x35_.5_kontur">
</g>
<g id="_x35_.6_fill">
</g>
<g id="_x35_.6_kontur">
</g>
<g id="_x35_.7_fill">
</g>
<g id="_x35_.7_kontur">
</g>
<g id="_x35_.8_fill">
</g>
<g id="_x35_.8_kontur">
</g>
<g id="_x36_.1_fill">
</g>
<g id="_x36_.1_kontur">
</g>
<g id="_x36_.2_fill">
</g>
<g id="_x36_.2_kontur">
</g>
<g id="_x36_.3_Fill">
</g>
<g id="_x36_.3_kontur">
</g>
<g id="_x36_.4_fill">
</g>
<g id="_x36_.4_kontur">
</g>
<g id="_x36_.5_fill">
</g>
<g id="_x36_.5_kontur">
</g>
<g id="_x37_.1_fill">
</g>
<g id="_x37_.1_kontur">
</g>
<g id="_x37_.2_fill">
</g>
<g id="_x37_.2_kontur">
</g>
<g id="_x38_.1_fill">
</g>
<g id="_x38_.1_kontur">
</g>
<g id="_x38_.2_fill">
</g>
<g id="_x38_.2_kontur">
</g>
<g id="_x38_.3_fill">
</g>
<g id="_x38_.3_kontur">
</g>
<g id="_x38_.4_fill">
</g>
<g id="_x38_.4_kontur">
</g>
<g id="_x38_.5_fill">
</g>
<g id="_x38_.5_kontur">
</g>
<g id="_x39_.1_fill">
</g>
<g id="_x39_.1_kontur">
</g>
<g id="_x39_.2_fill">
</g>
<g id="_x39_.2_kontur">
</g>
<g id="_x39_.3_fill">
</g>
<g id="_x39_.3_kontur">
</g>
<g id="_x39_.4_fill">
</g>
<g id="_x39_.4_kontur">
</g>
<g id="_x39_.5_fill">
</g>
<g id="_x39_.5_kontur">
</g>
</svg>
