<?xml version="1.0" encoding="utf-8"?>
<!-- Generator: Adobe Illustrator 20.0.0, SVG Export Plug-In . SVG Version: 6.00 Build 0)  -->
<svg version="1.2" baseProfile="tiny" xmlns="http://www.w3.org/2000/svg" xmlns:xlink="http://www.w3.org/1999/xlink" x="0px"
	 y="0px" viewBox="0 0 141.7 141.7" xml:space="preserve">
<g id="_x31_.1_Fill">
</g>
<g id="_x31_.1_Stroke">
</g>
<g id="_x31_.2_Fll">
</g>
<g id="_x31_.2_Stroke">
</g>
<g id="_x31_.3_Fill">
</g>
<g id="_x31_.3_Stroke">
</g>
<g id="_x32_.1_fill">
</g>
<g id="_x32_.1_kontur">
</g>
<g id="_x32_.2_fill">
</g>
<g id="_x32_.2_kontur">
</g>
<g id="_x32_.3_fill">
</g>
<g id="_x32_.3_kontur">
</g>
<g id="_x32_.4_fill">
</g>
<g id="_x32_.4_kontur">
</g>
<g id="_x32_.5_fill">
</g>
<g id="_x32_.5_kontur">
</g>
<g id="_x33_.1_fill">
</g>
<g id="_x33_.1_kontur">
</g>
<g id="_x33_.2_fil">
</g>
<g id="_x33_.2_kontur">
</g>
<g id="_x33_.3_fill">
</g>
<g id="_x33_.3_kontur">
</g>
<g id="_x33_.4_fill">
</g>
<g id="_x33_.4_kontur">
</g>
<g id="_x33_.5_fill">
</g>
<g id="_x33_.5_kontur">
</g>
<g id="_x34_.1_Fill">
</g>
<g id="_x34_.1_Stroke">
</g>
<g id="_x34_.2_Fll">
</g>
<g id="_x34_.2_Stroke">
</g>
<g id="_x34_.3_Fill">
</g>
<g id="_x34_.3_Stroke">
</g>
<g id="_x35_.1_fill">
</g>
<g id="_x35_.1_kontur">
</g>
<g id="_x35_.2_fill">
</g>
<g id="_x35_.2_kontur">
</g>
<g id="_x35_.3_fill">
</g>
<g id="_x35_.3_kontur">
</g>
<g id="_x35_.4_fill">
</g>
<g id="_x35_.4_kontur">
</g>
<g id="_x35_.5_fill">
	<path fill="#FFFFFF" d="M17.6,70.9c-0.4,7.7-1,15.3-1.8,22.8c5.8,4.7,11.6,9.7,17.4,14.9c5.2,5.8,10.1,11.6,14.8,17.4
		c7.5-0.8,15.1-1.4,22.8-1.8c7.7,0.4,15.3,1,22.8,1.8c4.7-5.8,9.7-11.6,14.8-17.4c5.8-5.2,11.6-10.1,17.4-14.9
		c-0.8-7.5-1.4-15.1-1.8-22.8c0.4-7.7,1-15.3,1.8-22.8c-5.9-4.7-11.7-9.7-17.4-14.9c-5.2-5.8-10.1-11.6-14.8-17.4
		c-7.5,0.8-15.1,1.4-22.8,1.8c-7.7-0.4-15.3-1-22.8-1.8c-4.7,5.8-9.7,11.6-14.8,17.4c-5.8,5.2-11.6,10.1-17.4,14.9
		C16.5,55.6,17.2,63.2,17.6,70.9z"/>
</g>
<g id="_x35_.5_kontur">
	<path fill="none" stroke="#000000" stroke-width="0.75" stroke-miterlimit="10" d="M17.6,70.9c-0.4,7.7-1,15.3-1.8,22.8
		c5.8,4.7,11.6,9.7,17.4,14.9c5.2,5.8,10.1,11.6,14.8,17.4c7.5-0.8,15.1-1.4,22.8-1.8c7.7,0.4,15.3,1,22.8,1.8
		c4.7-5.8,9.7-11.6,14.8-17.4c5.8-5.2,11.6-10.1,17.4-14.9c-0.8-7.5-1.4-15.1-1.8-22.8c0.4-7.7,1-15.3,1.8-22.8
		c-5.9-4.7-11.7-9.7-17.4-14.9c-5.2-5.8-10.1-11.6-14.8-17.4c-7.5,0.8-15.1,1.4-22.8,1.8c-7.7-0.4-15.3-1-22.8-1.8
		c-4.7,5.8-9.7,11.6-14.8,17.4c-5.8,5.2-11.6,10.1-17.4,14.9C16.5,55.6,17.2,63.2,17.6,70.9z"/>
</g>
<g id="_x35_.6_fill">
</g>
<g id="_x35_.6_kontur">
</g>
<g id="_x35_.7_fill">
</g>
<g id="_x35_.7_kontur">
</g>
<g id="_x35_.8_fill">
</g>
<g id="_x35_.8_kontur">
</g>
<g id="_x36_.1_fill">
</g>
<g id="_x36_.1_kontur">
</g>
<g id="_x36_.2_fill">
</g>
<g id="_x36_.2_kontur">
</g>
<g id="_x36_.3_Fill">
</g>
<g id="_x36_.3_kontur">
</g>
<g id="_x36_.4_fill">
</g>
<g id="_x36_.4_kontur">
</g>
<g id="_x36_.5_fill">
</g>
<g id="_x36_.5_kontur">
</g>
<g id="_x37_.1_fill">
</g>
<g id="_x37_.1_kontur">
</g>
<g id="_x37_.2_fill">
</g>
<g id="_x37_.2_kontur">
</g>
<g id="_x38_.1_fill">
</g>
<g id="_x38_.1_kontur">
</g>
<g id="_x38_.2_fill">
</g>
<g id="_x38_.2_kontur">
</g>
<g id="_x38_.3_fill">
</g>
<g id="_x38_.3_kontur">
</g>
<g id="_x38_.4_fill">
</g>
<g id="_x38_.4_kontur">
</g>
<g id="_x38_.5_fill">
</g>
<g id="_x38_.5_kontur">
</g>
<g id="_x39_.1_fill">
</g>
<g id="_x39_.1_kontur">
</g>
<g id="_x39_.2_fill">
</g>
<g id="_x39_.2_kontur">
</g>
<g id="_x39_.3_fill">
</g>
<g id="_x39_.3_kontur">
</g>
<g id="_x39_.4_fill">
</g>
<g id="_x39_.4_kontur">
</g>
<g id="_x39_.5_fill">
</g>
<g id="_x39_.5_kontur">
</g>
</svg>
