<?xml version="1.0" encoding="utf-8"?>
<!-- Generator: Adobe Illustrator 20.0.0, SVG Export Plug-In . SVG Version: 6.00 Build 0)  -->
<svg version="1.2" baseProfile="tiny" xmlns="http://www.w3.org/2000/svg" xmlns:xlink="http://www.w3.org/1999/xlink" x="0px"
	 y="0px" viewBox="0 0 141.7 141.7" xml:space="preserve">
<g id="_x31_.1_Fill">
</g>
<g id="_x31_.1_Stroke">
</g>
<g id="_x31_.2_Fll">
</g>
<g id="_x31_.2_Stroke">
</g>
<g id="_x31_.3_Fill">
</g>
<g id="_x31_.3_Stroke">
</g>
<g id="_x32_.1_fill">
</g>
<g id="_x32_.1_kontur">
</g>
<g id="_x32_.2_fill">
</g>
<g id="_x32_.2_kontur">
</g>
<g id="_x32_.3_fill">
</g>
<g id="_x32_.3_kontur">
</g>
<g id="_x32_.4_fill">
</g>
<g id="_x32_.4_kontur">
</g>
<g id="_x32_.5_fill">
	<g>
		<path fill="#FFFFFF" d="M14.6,70.8c7.5,5.7,15.8,10.1,24.6,13c-4.2,8.2-6.9,17.3-8.2,26.6c9.3-1.3,18.3-4,26.6-8.2
			c2.9,8.8,7.3,17.1,13,24.6c5.7-7.5,10.1-15.8,13-24.6c8.2,4.2,17.3,6.9,26.6,8.2c-1.3-9.3-4-18.3-8.2-26.6
			c8.8-2.9,17.1-7.3,24.6-13c-7.5-5.7-15.8-10.1-24.6-13c4.2-8.2,6.9-17.3,8.2-26.6c-9.3,1.3-18.3,4-26.6,8.2
			c-2.9-8.8-7.3-17.1-13-24.6c-5.7,7.5-10.1,15.8-13,24.6c-8.2-4.2-17.3-6.9-26.6-8.2c1.3,9.3,4,18.3,8.2,26.6
			C30.4,60.6,22.1,65.1,14.6,70.8z"/>
	</g>
</g>
<g id="_x32_.5_kontur">
	<g>
		<path fill="none" stroke="#000000" stroke-width="0.75" stroke-miterlimit="10" d="M14.6,70.8c7.5,5.7,15.8,10.1,24.6,13
			c-4.2,8.2-6.9,17.3-8.2,26.6c9.3-1.3,18.3-4,26.6-8.2c2.9,8.8,7.3,17.1,13,24.6c5.7-7.5,10.1-15.8,13-24.6
			c8.2,4.2,17.3,6.9,26.6,8.2c-1.3-9.3-4-18.3-8.2-26.6c8.8-2.9,17.1-7.3,24.6-13c-7.5-5.7-15.8-10.1-24.6-13
			c4.2-8.2,6.9-17.3,8.2-26.6c-9.3,1.3-18.3,4-26.6,8.2c-2.9-8.8-7.3-17.1-13-24.6c-5.7,7.5-10.1,15.8-13,24.6
			c-8.2-4.2-17.3-6.9-26.6-8.2c1.3,9.3,4,18.3,8.2,26.6C30.4,60.6,22.1,65.1,14.6,70.8z"/>
	</g>
</g>
<g id="_x33_.1_fill">
</g>
<g id="_x33_.1_kontur">
</g>
<g id="_x33_.2_fil">
</g>
<g id="_x33_.2_kontur">
</g>
<g id="_x33_.3_fill">
</g>
<g id="_x33_.3_kontur">
</g>
<g id="_x33_.4_fill">
</g>
<g id="_x33_.4_kontur">
</g>
<g id="_x33_.5_fill">
</g>
<g id="_x33_.5_kontur">
</g>
<g id="_x34_.1_Fill">
</g>
<g id="_x34_.1_Stroke">
</g>
<g id="_x34_.2_Fll">
</g>
<g id="_x34_.2_Stroke">
</g>
<g id="_x34_.3_Fill">
</g>
<g id="_x34_.3_Stroke">
</g>
<g id="_x35_.1_fill">
</g>
<g id="_x35_.1_kontur">
</g>
<g id="_x35_.2_fill">
</g>
<g id="_x35_.2_kontur">
</g>
<g id="_x35_.3_fill">
</g>
<g id="_x35_.3_kontur">
</g>
<g id="_x35_.4_fill">
</g>
<g id="_x35_.4_kontur">
</g>
<g id="_x35_.5_fill">
</g>
<g id="_x35_.5_kontur">
</g>
<g id="_x35_.6_fill">
</g>
<g id="_x35_.6_kontur">
</g>
<g id="_x35_.7_fill">
</g>
<g id="_x35_.7_kontur">
</g>
<g id="_x35_.8_fill">
</g>
<g id="_x35_.8_kontur">
</g>
<g id="_x36_.1_fill">
</g>
<g id="_x36_.1_kontur">
</g>
<g id="_x36_.2_fill">
</g>
<g id="_x36_.2_kontur">
</g>
<g id="_x36_.3_Fill">
</g>
<g id="_x36_.3_kontur">
</g>
<g id="_x36_.4_fill">
</g>
<g id="_x36_.4_kontur">
</g>
<g id="_x36_.5_fill">
</g>
<g id="_x36_.5_kontur">
</g>
<g id="_x37_.1_fill">
</g>
<g id="_x37_.1_kontur">
</g>
<g id="_x37_.2_fill">
</g>
<g id="_x37_.2_kontur">
</g>
<g id="_x38_.1_fill">
</g>
<g id="_x38_.1_kontur">
</g>
<g id="_x38_.2_fill">
</g>
<g id="_x38_.2_kontur">
</g>
<g id="_x38_.3_fill">
</g>
<g id="_x38_.3_kontur">
</g>
<g id="_x38_.4_fill">
</g>
<g id="_x38_.4_kontur">
</g>
<g id="_x38_.5_fill">
</g>
<g id="_x38_.5_kontur">
</g>
<g id="_x39_.1_fill">
</g>
<g id="_x39_.1_kontur">
</g>
<g id="_x39_.2_fill">
</g>
<g id="_x39_.2_kontur">
</g>
<g id="_x39_.3_fill">
</g>
<g id="_x39_.3_kontur">
</g>
<g id="_x39_.4_fill">
</g>
<g id="_x39_.4_kontur">
</g>
<g id="_x39_.5_fill">
</g>
<g id="_x39_.5_kontur">
</g>
</svg>
