<?xml version="1.0" encoding="utf-8"?>
<!-- Generator: Adobe Illustrator 20.0.0, SVG Export Plug-In . SVG Version: 6.00 Build 0)  -->
<svg version="1.2" baseProfile="tiny" xmlns="http://www.w3.org/2000/svg" xmlns:xlink="http://www.w3.org/1999/xlink" x="0px"
	 y="0px" viewBox="0 0 141.7 141.7" xml:space="preserve">
<g id="_x31_.1_Fill">
</g>
<g id="_x31_.1_Stroke">
</g>
<g id="_x31_.2_Fll">
</g>
<g id="_x31_.2_Stroke">
</g>
<g id="_x31_.3_Fill">
</g>
<g id="_x31_.3_Stroke">
</g>
<g id="_x32_.1_fill">
</g>
<g id="_x32_.1_kontur">
</g>
<g id="_x32_.2_fill">
</g>
<g id="_x32_.2_kontur">
</g>
<g id="_x32_.3_fill">
</g>
<g id="_x32_.3_kontur">
</g>
<g id="_x32_.4_fill">
</g>
<g id="_x32_.4_kontur">
</g>
<g id="_x32_.5_fill">
</g>
<g id="_x32_.5_kontur">
</g>
<g id="_x33_.1_fill">
	<g>
		<g>
			<path fill="#FFFFFF" d="M71.1,56.7c2.6-4.3,5.3-8.9,7.4-13.5c2.8-7.1,3.7-13.9,0.2-19c-2.4-3.5-4.8-4.8-7.1-4.8
				c-2.3-0.1-4.8,1.2-7.2,4.6c-3.6,5-2.9,11.8-0.3,19C66.1,47.6,68.6,52.3,71.1,56.7z"/>
			<path fill="#FFFFFF" d="M117,87.9c8.3-4.5,15.5-11.4,5.9-18.4c-5-3.6-11.9-2.9-19.1-0.4c-11.1,4.6-22.3,12.2-28.4,16l-2.1-3.4
				c4.7-3,17.7-11,27.6-19.9c7.2-7.1,11.3-14.6,5.6-20.4c-5.7-5.9-13.4-1.9-20.7,5C80.3,52.1,75,59,71,64.6
				c-3.8-5.7-8.9-12.8-14.3-18.7c-7.1-7.2-14.7-11.4-20.5-5.7c-5.8,5.7-1.9,13.3,5.1,20.6c9.7,9.2,22.4,17.6,27,20.8l-2.2,3.4
				c-6-4-17.1-11.9-28-16.9c-7.1-2.8-14-3.7-19.1-0.3c-9.8,6.6-2.8,13.8,5.4,18.6C35.7,91.1,50.2,94.5,58,96
				c1.6,0.1,2.9,0.3,4.1,0.4l-0.4,3.9c-1.5-0.2-3.6-0.5-5.9-0.9c-1.4-0.1-2.9-0.2-4.5-0.3c-14.9-0.6-36.5,1-29.7,15.4
				c2.5,5.3,8,6.7,14.4,6.1c10.1-1.7,21.4-6.4,27-8.7l3.8,0.3c-1.5-7.7,0.2-15.4,4-22c3.6,6.7,5.1,14.4,3.4,22.1l3.8-0.2
				c5.6,2.5,16.7,7.6,26.8,9.6c6.3,0.8,11.9-0.4,14.6-5.6c7.2-14.2-14.3-16.5-29.3-16.4c-1.6,0-3.1,0.1-4.5,0.1
				c-2.4,0.3-4.4,0.5-6,0.7l-0.3-3.9c1.1-0.1,2.5-0.2,4.1-0.3C91.1,95.1,105.7,92.2,117,87.9z"/>
		</g>
	</g>
</g>
<g id="_x33_.1_kontur">
	<g>
		<g>
			<path fill="none" stroke="#252021" stroke-width="0.75" stroke-miterlimit="10" d="M71.1,56.7c2.6-4.3,5.3-8.9,7.4-13.5
				c2.8-7.1,3.7-13.9,0.2-19c-2.4-3.5-4.8-4.8-7.1-4.8c-2.3-0.1-4.8,1.2-7.2,4.6c-3.6,5-2.9,11.8-0.3,19
				C66.1,47.6,68.6,52.3,71.1,56.7z"/>
			<path fill="none" stroke="#252021" stroke-width="0.75" stroke-miterlimit="10" d="M117,87.9c8.3-4.5,15.5-11.4,5.9-18.4
				c-5-3.6-11.9-2.9-19.1-0.4c-11.1,4.6-22.3,12.2-28.4,16l-2.1-3.4c4.7-3,17.7-11,27.6-19.9c7.2-7.1,11.3-14.6,5.6-20.4
				c-5.7-5.9-13.4-1.9-20.7,5C80.3,52.1,75,59,71,64.6c-3.8-5.7-8.9-12.8-14.3-18.7c-7.1-7.2-14.7-11.4-20.5-5.7
				c-5.8,5.7-1.9,13.3,5.1,20.6c9.7,9.2,22.4,17.6,27,20.8l-2.2,3.4c-6-4-17.1-11.9-28-16.9c-7.1-2.8-14-3.7-19.1-0.3
				c-9.8,6.6-2.8,13.8,5.4,18.6C35.7,91.1,50.2,94.5,58,96c1.6,0.1,2.9,0.3,4.1,0.4l-0.4,3.9c-1.5-0.2-3.6-0.5-5.9-0.9
				c-1.4-0.1-2.9-0.2-4.5-0.3c-14.9-0.6-36.5,1-29.7,15.4c2.5,5.3,8,6.7,14.4,6.1c10.1-1.7,21.4-6.4,27-8.7l3.8,0.3
				c-1.5-7.7,0.2-15.4,4-22c3.6,6.7,5.1,14.4,3.4,22.1l3.8-0.2c5.6,2.5,16.7,7.6,26.8,9.6c6.3,0.8,11.9-0.4,14.6-5.6
				c7.2-14.2-14.3-16.5-29.3-16.4c-1.6,0-3.1,0.1-4.5,0.1c-2.4,0.3-4.4,0.5-6,0.7l-0.3-3.9c1.1-0.1,2.5-0.2,4.1-0.3
				C91.1,95.1,105.7,92.2,117,87.9z"/>
		</g>
	</g>
</g>
<g id="_x33_.2_fil">
</g>
<g id="_x33_.2_kontur">
</g>
<g id="_x33_.3_fill">
</g>
<g id="_x33_.3_kontur">
</g>
<g id="_x33_.4_fill">
</g>
<g id="_x33_.4_kontur">
</g>
<g id="_x33_.5_fill">
</g>
<g id="_x33_.5_kontur">
</g>
<g id="_x34_.1_Fill">
</g>
<g id="_x34_.1_Stroke">
</g>
<g id="_x34_.2_Fll">
</g>
<g id="_x34_.2_Stroke">
</g>
<g id="_x34_.3_Fill">
</g>
<g id="_x34_.3_Stroke">
</g>
<g id="_x35_.1_fill">
</g>
<g id="_x35_.1_kontur">
</g>
<g id="_x35_.2_fill">
</g>
<g id="_x35_.2_kontur">
</g>
<g id="_x35_.3_fill">
</g>
<g id="_x35_.3_kontur">
</g>
<g id="_x35_.4_fill">
</g>
<g id="_x35_.4_kontur">
</g>
<g id="_x35_.5_fill">
</g>
<g id="_x35_.5_kontur">
</g>
<g id="_x35_.6_fill">
</g>
<g id="_x35_.6_kontur">
</g>
<g id="_x35_.7_fill">
</g>
<g id="_x35_.7_kontur">
</g>
<g id="_x35_.8_fill">
</g>
<g id="_x35_.8_kontur">
</g>
<g id="_x36_.1_fill">
</g>
<g id="_x36_.1_kontur">
</g>
<g id="_x36_.2_fill">
</g>
<g id="_x36_.2_kontur">
</g>
<g id="_x36_.3_Fill">
</g>
<g id="_x36_.3_kontur">
</g>
<g id="_x36_.4_fill">
</g>
<g id="_x36_.4_kontur">
</g>
<g id="_x36_.5_fill">
</g>
<g id="_x36_.5_kontur">
</g>
<g id="_x37_.1_fill">
</g>
<g id="_x37_.1_kontur">
</g>
<g id="_x37_.2_fill">
</g>
<g id="_x37_.2_kontur">
</g>
<g id="_x38_.1_fill">
</g>
<g id="_x38_.1_kontur">
</g>
<g id="_x38_.2_fill">
</g>
<g id="_x38_.2_kontur">
</g>
<g id="_x38_.3_fill">
</g>
<g id="_x38_.3_kontur">
</g>
<g id="_x38_.4_fill">
</g>
<g id="_x38_.4_kontur">
</g>
<g id="_x38_.5_fill">
</g>
<g id="_x38_.5_kontur">
</g>
<g id="_x39_.1_fill">
</g>
<g id="_x39_.1_kontur">
</g>
<g id="_x39_.2_fill">
</g>
<g id="_x39_.2_kontur">
</g>
<g id="_x39_.3_fill">
</g>
<g id="_x39_.3_kontur">
</g>
<g id="_x39_.4_fill">
</g>
<g id="_x39_.4_kontur">
</g>
<g id="_x39_.5_fill">
</g>
<g id="_x39_.5_kontur">
</g>
</svg>
